<svg id="Layer_1" data-name="Layer 1" xmlns="http://www.w3.org/2000/svg" viewBox="0 0 1019.13 1068.29"><defs><style>.cls-1{fill:#fff;}</style></defs><title>elves_2</title><path d="M550.92,87.15c-7.18,10.08-16.74,19-32.75,18a16.79,16.79,0,0,0,2.77,3.15c9.63,6.61,19.22,13.29,29,19.61,8.93,5.74,18.3,10.81,27.13,16.69,3.73,2.48,6.72,6.16,9.79,9.53,3.54,3.89,6.94,7.92,10.13,12.1,3.33,4.36,5.8,9,2.27,14.58-3.76,5.93-9.42,7.1-15.89,6.79-14.16-.68-24.58-8.71-34.47-17.57-11.39-10.21-20.37-22.38-27.85-35.69a30.36,30.36,0,0,0-3.14-3.6c.08,11.33.5,20.78,2.66,30.53C523.46,174,528,186.88,526,200.53c-.59,4,.52,8.26.56,12.4.11,13.65-5.51,24.91-15.06,34.26-3.48,3.4-8.29,5.11-13,3.72-2.29-.68-4.63-3.69-5.49-6.15a99.19,99.19,0,0,1-4.89-18.94c-.48-3.44,1.8-7.18,1.89-10.81.07-3.26-1.16-6.56-2-11,.55-2.33,2-6.27,2.26-10.28.24-3.68-.79-7.45-1.38-12.2L491.1,180c-2-2.74.41-4,4.67-5.35-13.4-2.27-19.59-10.22-22.38-21.5l-1.48-.36c-1.44,2.82-3.21,5.52-4.26,8.48-3.65,10.25-9,19.49-14.62,28.81-4.39,7.27-9.81,13.07-15.68,18.74-6.16,6-12.83,11.17-22.07,11.22l-4.42-5.72c1.33-2.93,2.61-6.14-3.21-7.81,1.51-3,2.81-5.55,4.13-8.12.07-.14.34-.31.32-.36-3.83-7.84,5.87-10.84,6.14-17.21.07-1.77.83-3.86.13-5.24-1.46-2.9-.35-4.57,1.61-6.42.53-.5.55-1.57.77-2.38.61-2.25,1.28-4.49,1.78-6.77a3.5,3.5,0,0,0-.58-2.75c3.19-8.28,6.25-16.61,9.61-24.82,3.92-9.58,7.66-19.29,14.4-27.39,3.17-3.81,6.17-7.81,9.68-11.28,2-2,4.84-3.21,7.43-4.53,3.88-2,8.67-1.54,11.59-6.27,2.07-3.37,6.46-2.63,10.7,0-3.36-13.35-6.73-25.63-9.5-38-2.67-12-7.31-23.93-5-36.45l2.33-.56c.79,1.59,2.23,3.17,2.27,4.78A93.67,93.67,0,0,0,479.26,37c2.88,9.77,4.06,20,6.35,30,1.26,5.51,3.33,10.83,4.94,16.26s2.84,10.77,4.71,16A6.79,6.79,0,0,0,499.4,103c8.95,2,12,7.25,11.86,15.09,0,1.57,1.73,3.18,2.67,4.78.41-.29.93-.56.9-.67-1.72-6-3.66-11.89-5.21-17.91-1.61-6.2-2.92-12.47-4.24-18.74-1.72-8.23,3-14.37,7-20.71a44,44,0,0,1,2.85-3.56l-6.88.95c1.39-3.88,3.19-5.44,7-5.23s7.88-.83,11.82-.82c11.69.05,24.15,8.25,25.46,22.18.28,3,1.46,5.2,5.18,6,6,1.27,11.7,4.27,17.72,5.08,10.64,1.43,20.7-.82,29.21-8a4.92,4.92,0,0,0,.65-7.48c-5.75-6.6-13.22-9.91-21.91-11.46-8-1.42-15.73-4.54-23.72-6.24-11.47-2.44-23.09-4.15-34.59-6.48-1.39-.28-2.4-2.45-3.59-3.74,1.21-1,2.61-2.92,3.61-2.74,7,1.28,13.86,3,20.76,4.6,7.68,1.79,15.37,3.53,23,5.49a114.84,114.84,0,0,1,11.82,3.77c7.72,2.9,15.63,5.47,22.9,9.26,3.07,1.6,5.23,5.7,6.86,9.11,2.3,4.79.26,9.35-3.73,12.6-9.71,7.92-20.76,8.5-32.2,5.93C566.9,92.39,559.44,89.7,550.92,87.15ZM478,90.75c-2.57.55-4.69,1.65-6.53,1.29a13.05,13.05,0,0,0-14,5.61c-6,8.47-12,17-16.84,26.1-4.23,8-7.16,16.78-10,25.44-2.49,7.56-4.07,15.42-6,23.16-1.29,5.09-2.66,10.16-3.76,15.29a114.6,114.6,0,0,0-2.75,15.78c-.2,2.82.76,7.8,2.21,8.21,2.69.75,6.52-.45,9.17-2,9.24-5.54,15.7-14,21.71-22.69a110.24,110.24,0,0,0,8.19-13.5,117.69,117.69,0,0,0,6.53-16.11c2.35-7.3,4.21-14.77,6.12-22.2,1.48-5.77,1.57-11.68,4-17.47,3.69-8.65,6.21-17.95,5.53-27.68-.35-5-1.8-5.82-6.77-3.49Zm38.86,65.66a30.27,30.27,0,0,0-4.26,2.88c-2.62,2.59-5.13,5.3-7.57,8.06-1.6,1.8-4,3.6-4.33,5.67-1.41,8.53-3.85,16.79-4.32,25.62-.62,11.62-1.22,23.21-.57,34.79.23,4.11,1.39,8.73,6,10.76,4.27,1.87,6.35-1.94,9.13-3.84a10.24,10.24,0,0,0,1.64-1.56c9.86-10.69,10.75-24,9.84-37.31C521.46,186.78,518.9,172.18,516.88,156.41Zm2.58-43.9-1,1.56a40.43,40.43,0,0,1,3,5.51C526,132.2,533.37,143.16,542,153.16c5.48,6.37,12.3,11.58,18.42,17.41,8.1,7.72,18,10.68,28.86,10.95a5.83,5.83,0,0,0,2.93-.52c4.33-2.51,4.58-5.23.68-10.9-8-11.62-18.4-20.86-29.78-28.95S540,125.36,528.33,117.59C525.51,115.71,522.43,114.2,519.46,112.52Zm-35.37,47.71,11.2,1.21-4.82-4.19c7.35.27,4.77-5.8,7.25-8.45.82-.87,2.23-1.18,3.37-1.74.43,1.22,1.18,2.42,1.22,3.65.16,4,.06,8.07.06,12.11l1.69.71c2.18-3.22,4.19-6.56,6.57-9.62,3.48-4.5,1.91-9.11-1.35-11.86-7.36-6.2-9.79-14.65-13-23-.84-2.19-3.54-3.88-5.71-5.31-3.06-2-5.41.39-6.49,2.58-1.91,3.88-2.93,8.18-4.37,12.3C475.7,140.12,477.25,150.76,484.09,160.22Zm42-97.08,21.24,17.07c.36-7.87-2.33-12.36-9.13-17.12-7-4.94-11.37-5.73-16.93-.79A28.23,28.23,0,0,0,511.3,84c.07,7,7.51,14.15,14.34,14.74,8.7.75,18.64-4.87,20.44-11.62,1.15-4.32-2.89-5.5-5-7.59-3.84-3.76-8.25-6.94-12.18-10.62C527.68,67.75,527.29,65.76,526,63.14Zm-39.16,25c-2,6.64-3,13.12-1.89,19.93,5.89-1.67,7.2-4.95,5.52-9.69Q488.71,93.24,486.88,88.12ZM503.09,118c-2.06,4.37,1.43,10.12,6.92,11.84Z"/><path class="cls-1" d="M478,90.75l-3.25-4.28c5-2.34,6.42-1.51,6.77,3.49.68,9.73-1.84,19-5.53,27.68-2.47,5.79-2.56,11.69-4,17.47-1.91,7.44-3.77,14.9-6.12,22.2a117.69,117.69,0,0,1-6.53,16.11,110.24,110.24,0,0,1-8.19,13.5c-6,8.72-12.47,17.15-21.71,22.69-2.64,1.58-6.48,2.79-9.17,2-1.45-.41-2.41-5.39-2.21-8.21a114.6,114.6,0,0,1,2.75-15.78c1.1-5.13,2.48-10.2,3.76-15.29,2-7.74,3.55-15.6,6-23.16,2.85-8.65,5.78-17.42,10-25.44,4.82-9.13,10.89-17.63,16.84-26.1a13.05,13.05,0,0,1,14-5.61C473.33,92.4,475.46,91.3,478,90.75Z"/><path class="cls-1" d="M516.88,156.41c2,15.77,4.57,30.37,5.58,45.08.91,13.27,0,26.62-9.84,37.31a10.24,10.24,0,0,1-1.64,1.56c-2.78,1.91-4.86,5.71-9.13,3.84-4.63-2-5.8-6.65-6-10.76-.64-11.58,0-23.18.57-34.79.47-8.83,2.91-17.09,4.32-25.62.34-2.08,2.74-3.88,4.33-5.67,2.45-2.76,5-5.47,7.57-8.06A30.27,30.27,0,0,1,516.88,156.41Z"/><path class="cls-1" d="M519.46,112.52c3,1.68,6,3.19,8.87,5.08,11.64,7.77,23.36,15.44,34.76,23.55s21.79,17.33,29.78,28.95c3.9,5.67,3.65,8.4-.68,10.9a5.83,5.83,0,0,1-2.93.52c-10.89-.26-20.76-3.23-28.86-10.95-6.12-5.83-12.93-11-18.42-17.41-8.62-10-16-21-20.52-33.58a40.43,40.43,0,0,0-3-5.51Z"/><path class="cls-1" d="M484.09,160.22c-6.84-9.46-8.39-20.11-4.37-31.6,1.44-4.11,2.46-8.42,4.37-12.3,1.08-2.19,3.43-4.6,6.49-2.58,2.17,1.43,4.86,3.12,5.71,5.31,3.21,8.33,5.63,16.78,13,23,3.26,2.74,4.83,7.35,1.35,11.86-2.37,3.07-4.39,6.41-6.57,9.62l-1.69-.71c0-4,.1-8.08-.06-12.11,0-1.23-.8-2.43-1.22-3.65-1.14.57-2.55.87-3.37,1.74-2.49,2.65.09,8.71-7.25,8.45l4.82,4.19Z"/><path class="cls-1" d="M526,63.14c1.25,2.62,1.64,4.61,2.84,5.73,3.93,3.68,8.34,6.86,12.18,10.62,2.13,2.09,6.17,3.27,5,7.59-1.8,6.74-11.74,12.37-20.44,11.62-6.83-.59-14.27-7.77-14.34-14.74a28.23,28.23,0,0,1,9.92-21.66c5.56-4.94,9.89-4.14,16.93.79,6.8,4.76,9.5,9.25,9.13,17.12Z"/><path class="cls-1" d="M486.88,88.12q1.82,5.12,3.64,10.24c1.67,4.74.37,8-5.52,9.69C483.85,101.24,484.89,94.76,486.88,88.12Z"/><path class="cls-1" d="M503.09,118,510,129.84C504.51,128.12,501,122.36,503.09,118Z"/><path d="M913.44,563.39c-1.63-1.18-3.85-1.52-5.79-2.28a19,19,0,0,1-2.07-.9,18.51,18.51,0,0,1-4-1.28l-.45,0a19.35,19.35,0,0,1-2.34-.15,18.35,18.35,0,0,1-6.22,1.14l-.67,0a19.18,19.18,0,0,1-4.87,1.34l-36.18,9.28-6.36-16.69c2,.49,4,1.42,6,1.33,2.12-.1,5-.53,6.11-1.95,1.78-2.33.67-5-2.42-5.92-3.64-1.15-7.44-1.84-11-3.22a16.1,16.1,0,0,1-6.3-4.14c-5.57-6.55-9.9-14.5-16.44-19.75-5.06-4.07-5.62-9.17-7.42-14-2.35-6.28-3.26-13.09-5.1-19.58-2.15-7.59-4.74-15.06-7-22.63-2.82-9.61-5.4-19.29-8.22-28.9-.41-1.42-2-2.54-2.25-3.95-1-4.92-1.39-10-2.7-14.86-2.66-9.87-5.34-19.78-8.78-29.39-5.28-14.76-10.78-29.46-17-43.85a205.83,205.83,0,0,0-14.44-27c-4.19-6.72-9.64-12.66-14.56-19,7.24-10.65,6.86-18.45-1.48-28.47-4.59-5.51-8.13-6.23-14.73-2.72l3.84,2.34c5.59,3.43,9.58,8.41,8.8,14.93-.6,5-2.51,10.56-9,12a5.26,5.26,0,0,0-2.58,2c-3.85,5-11.09,5.91-16.68,3.19-7.6-3.71-7.75-21.72-3-27,3.53-4,8.28-6.84,12.3-10.41,1.08-1,1.48-2.66,2.2-4-1.49-.58-3-1.54-4.49-1.64a7.47,7.47,0,0,0-4,1.29c-3.47,2.13-6.85,4.42-10.21,6.73-11.7,8-12.86,19.92-8.29,32.23,3.55,9.57,11.65,13.72,21.86,14.41a10.63,10.63,0,0,1-.73,2.49c-6.11,9.62-12,19.37-18.47,28.79-8.27,12.11-17.16,23.8-25.38,35.94q-19.77,29.22-39,58.82c-6.26,9.65-12.07,19.59-17.81,29.56-4.28,7.43-9.16,14.3-15.86,19.7-1.13.91-3,1.94-4.12,1.62-3.94-1.09-7.65-3-11.57-4.14a6.43,6.43,0,0,0-8.27,3.7c-1.36,2.95-.62,5.58,2.63,6.87s6.34,2.24,8.55,3c-9,12.93-18.72,25.4-26.72,38.91s-12.63,28.81-15.76,44.39c-2.88,14.37-1.52,29-1.67,42.09.87,3.83,1.57,6.54,2.05,9.28a9.06,9.06,0,0,1-.43,2.84c3.36.54,1.92,1.92.79,3.57-.43.62-.28,2.52.11,2.69,2.53,1.12,4.54,2.08,1,4.48a14.07,14.07,0,0,0,.92,1.18,13.26,13.26,0,0,1,2,2c.7,1.15,1,2.52,1.7,3.69,2,3.55,6.27,7.38,5.77,10.48-.75,4.65,2,6.56,3.56,9.57a8.91,8.91,0,0,1,.41,1.44l.43-.73c2.39,1.81,5.18,3.3,7,5.58,7.87,9.84,15.63,19.72,26.13,27,3.56,2.47,6.56,6.94,10.32,7.61,4.86.87,8.42,3.63,12.69,5.1,4.1,1.41,7.86,5.94,13.11,2.51.74-.48,3.07.25,3.72,1.12a42.47,42.47,0,0,1,3.42,6.21c2.83.7,5.1,1,7.13,1.83,2.69,1.13,5,3.23,7.8,4,9.63,2.78,19.31,5.41,29.09,7.56,2.49.55,2.95,1,2.53,3.23-1.22,6.53-2.47,13.05-3.41,19.62a10,10,0,0,0,.82,6c.55,1,3.18,1.35,4.62,1s2.24-2,3.93-3.72c1.7,7.62,3.47,14.77,4.87,22,2,10.24,3.6,20.55,5.58,30.79,1.65,8.53,4.12,16.93,5.28,25.51,2.55,18.85,4.59,37.77,6.67,56.68s4,37.55,5.86,56.33c1.59,16,3.13,32,4.5,48.08,1,12.06,1.69,24.16,2.73,36.22.14,1.61,1.45,3.18,2.44,4.61.19.27,2,0,2.14-.37,1-3,5.07-4.15,4-8.94-1.35-5.94-.37-12.37-.8-18.56-.84-12.1-1.87-24.18-3-36.25-1-11-2.28-22-3.44-33q-2.52-23.74-5.05-47.47c-1.5-14-2.81-28-4.65-41.88-1.55-11.67-3.57-23.28-5.7-34.86-1.79-9.75-4.19-19.39-6.05-29.13-2.83-14.82-5.47-29.68-8.09-44.53-.55-3.14-.71-6.35-1.09-10,16.64.93,32.24-.48,47.37-5.32,6.76-2.16,13.79-4.07,19.92-7.48,10.43-5.81,20.46-12.42,30.28-19.25,15.27-10.61,29-23.12,39.59-38.43a164.13,164.13,0,0,0,17.56-31.7c3-7.38,7.72-14.41,7.15-23.46-.4-6.31,2.35-12.82,3.81-19.21a2.92,2.92,0,0,1,1.65-1.89c11.74-3.07,23.51-6,36.06-9.23q1.78-.65,3.61-1.14a58.47,58.47,0,0,1,8.32-4.54,39,39,0,0,1,4.19-3.31,5.21,5.21,0,0,1,.8-1.39c2.2-2.68,4.32-5.54,7-7.69C917.6,567.14,915.81,565.1,913.44,563.39ZM623.8,460.86q4.47-8.89,9.09-17.71c1.27-2.42,2.65-4.8,4.08-7.13,6.59-10.75,12.88-21.71,19.93-32.14,10.19-15.08,21.21-29.59,31.36-44.69,7.06-10.51,13.17-21.65,19.88-32.4,3.45-5.53,7.06-11,11-16.18s7.3-5.35,11.3-.22a182.84,182.84,0,0,1,11.42,17c9,14.61,15.37,30.41,21,46.54,2.9,8.33,5.48,16.78,8,25.24q8.58,28.8,16.92,57.66c3.41,11.86,6.51,23.8,9.77,35.7,1.17,4.26,2.38,8.5,3.83,13.65-12.73-7.18-24.62-13.84-36.47-20.58-8.88-5-17.61-10.38-26.6-15.21-6.7-3.6-13.69-6.65-20.61-9.8a5.67,5.67,0,0,0-3.55,0c-5.12,1.42-7.72-2.61-11.5-4.53-6.23-3.17-13.3-5.93-20.17-6.34-14.5-.87-28.81,2.11-42.68,6.33-4.73,1.44-8.89,4.73-13.35,7.08a24.61,24.61,0,0,1-3.72,1.28A21.56,21.56,0,0,1,623.8,460.86Zm.31,12.22c9.42-4.27,18.44-9.51,28-13.26,5.18-2,11.24-1.82,16.9-2.61,22.43-3.12,37.78,9.1,51.81,24.05,1.39,1.48,2.07,3.6,3.16,5.37s2.42,3.74,3.68,5.68c3.55-3.83-.48-15.2-7.92-22.18,1.32,0,2.21-.26,2.85,0,8.67,4.07,17.47,7.91,25.89,12.45,4.84,2.61,9,6.53,13.58,9.6,14.07,9.35,28.53,18.16,42.17,28.09,3.75,2.73,5.28,8.58,7.65,13.1,1.19,2.26,2,4.73,3.1,7.45-35.67-3.63-70.39-10.75-104.81-19S641.84,504,607.47,495C607.94,483.07,614.84,477.28,624.11,473.08ZM751.56,617.61c11.42-8.48,24.93-9.83,38-12.12,8.1-1.41,16.43-1.49,24.64-2.27,8.05-.77,16.09-1.67,24.8-2.59-.15,3.25.46,7-.63,10.2-4.1,12-8.25,24-13.38,35.63a153.26,153.26,0,0,1-14.4,25.67A105,105,0,0,1,794,690c-8.46,7.5-17.59,14.24-26.46,21.26a86.45,86.45,0,0,1-33.93,16.79,284.68,284.68,0,0,1-37.49,5.73c-5.62.54-11.57-.9-17.21-2.15-13.35-3-27-5.13-39.8-9.8-19.17-7-38.33-14.91-54.05-28.39-7.76-6.66-13.93-15.24-20.5-23.22a85.24,85.24,0,0,1-16.31-31.56c-1.91-6.87-2.5-14.15-3.29-21.29-.61-5.54-.62-11.14-.91-17.06,10.94-3,21.4-1.1,31.54,2.92,2,.8,4.77,3.62,4.57,5.16-.29,2.14-2.67,4.91-4.81,5.74-7.26,2.84-14.84,4.86-22.22,7.4-1.7.58-3.1,2-4.64,3l.84,1.51c8.28-2.63,16.6-5.13,24.8-8,2.42-.84,4.6-2.51,6.76-4,3.73-2.57,3-5.68,1.27-9.25-4.34-8.72-12-11.67-20.92-12.69-5.32-.61-10.66-1.05-16.87-1.66,3.25-11.54,5.47-23.13,9.82-33.86s10.44-20.7,16.49-30.56c4.34-7.07,9.69-13.57,15-20a10.91,10.91,0,0,1,11.64-3.68c16.47,4.43,32.85,9.16,49.33,13.54,5.44,1.45,11.15,1.91,16.6,3.31,6.66,1.71,13.14,4.1,19.79,5.88,5.41,1.45,11,2.38,16.4,3.67,9,2.15,18,4.61,27.12,6.55,5.29,1.13,10.8,1.25,16.11,2.3,4.72.93,9.24,2.93,14,3.76,10.92,1.92,21.9,3.44,32.87,5.08,12.8,1.92,25.62,3.72,38.4,5.78a5.74,5.74,0,0,1,3.4,2.85,95.36,95.36,0,0,1,4.81,10.61c2.06,5.36,3,7.78-4.24,8.95-9.6,1.55-19.17,3.33-28.83,4.41-8.41.94-16.91,1-25.37,1.55-7.64.48-15.27,1.09-22.91,1.61-2.31.16-4.76-.23-6.9.42a14,14,0,0,0-5.88,3.6c-1.48,1.56-2.8,4.35-.3,5.86,1.87,1.13,4.63,1.2,6.95,1.06,6.61-.4,13.2-1.17,19.8-1.74,7.41-.64,14.85-1,22.22-1.87,15.16-1.86,30.28-4.05,45.43-6,1.42-.18,3,.5,4.43.77-.5,2.06-.37,4.79-1.66,6-1.47,1.38-4.21,1.39-6.4,2-13.28,3.74-27.05,3.46-40.62,4.66-9.35.83-18.69,1-27.71,4-6.54,2.23-13.72,3.25-16.9,11.18Zm138.2-39.29c-8.79,2.5-17.57,4.62-26.06,7.58-4,1.4-7.59,2.94-11.6.9-.83-7,3.63-8.53,9-9.64,7.13-1.49,14.23-3.18,21.23-5.2C889.65,569.85,890.06,570,889.76,578.33Z"/><path d="M520.7,445.45l-3.26,5.32c-10.6-7.77-22.92-5.36-35.87-5.42,7.64,17.66,13.25,35.5,12.21,55.25l5.39.7c-2.06,4.27-4.88,8-5.67,12.18-1.48,7.72-1.25,15.77-2.72,23.49-1.43,7.5-4.14,14.76-6.21,22.14-1.3,4.64-2.25,9.38-3.74,14-1.58,4.83-4.25,9.38-5.31,14.29-1.86,8.56-5.73,16.21-9.67,23.79-7.46,14.34-16,28-27.17,39.91-8.28,8.86-16,18.3-24.49,26.91A93.55,93.55,0,0,1,398,690.4c-7.49,4.8-15.14,9.53-23.23,13.15-7.74,3.46-16,6.64-24.29,7.8-12.16,1.71-24.58,4.08-36.88-.45-8.44-3.11-16.74-6.18-23.81-12.09-3-2.52-7.14-3.65-10.59-5.69a50.3,50.3,0,0,1-7-5.2c-3.76-3.23-7.52-6.48-11-10-5.15-5.24-10.51-10.39-15-16.2-7.67-10-15.34-20.14-21.81-30.93-4.54-7.57-7.75-16.13-10.36-24.61-3.2-10.4-4.54-21.39-8-31.71-1.38-4.17-5.67-7.78-9.37-10.72-13.08-10.4-18.1-23.88-16.6-40.18.14-1.48-.11-3.12.46-4.4,2-4.5,5.28-4.64,8.15-.66,3.08,4.27,5.95,8.79,11.78,10,2.71.55,4.16-.17,4.32-2.91.93-16.54,3.34-32.8,8.64-48.58,2.93-8.71,4.77-17.9,8.61-26.17a181.76,181.76,0,0,1,16.56-28.62c8.78-12.35,16.22-25,19.35-40.07,1.51-7.26,4.51-14.2,6.57-21.36,1.06-3.68,1.45-7.55,2.32-11.29,1.28-5.52,2.75-11,4.07-16.52,4.58-19.08,9.23-38.15,13.64-57.27,1.67-7.24,2.83-14.6,4-21.94.17-1-.47-2.92-1.29-3.33-5.8-2.94-10.69-6.95-11.3-13.64-.82-9.05,2.86-16.7,8.77-23.67,7-8.22,16.46-11.59,25.94-15.17,1.14-.43,3.46-.35,3.85.31,3.16,5.32,9.24,4.51,13.81,6.48,15.75,6.78,13.84,15,6.93,26.27-5.54,9-5.49,11.62,1.29,19.61,4.66,5.49,8.55,11.65,12.62,17.62,3.89,5.71,7.61,11.53,11.33,17.35,4.79,7.49,9.6,15,14.24,22.57,6.93,11.33,13.87,22.66,20.51,34.16,3.52,6.1,6.28,12.63,9.6,18.85,5.22,9.77,9.92,19.93,16.23,29,3.32,4.75,9.5,7.57,14.54,11,14.41,9.9,28.41,20.18,38.65,34.76,1,1.41,3.74,2.2,5.68,2.23,8,.1,16-.67,24-.21A24.61,24.61,0,0,1,520.7,445.45ZM409,667.1c1.93-2.08,3.94-4.1,5.78-6.26,7.18-8.45,14.73-16.63,21.34-25.5a335.11,335.11,0,0,0,20.39-30.49c7.78-13.27,12.11-28,16.22-42.79.6-2.17,3.51-5.49-1.15-7.73-1.11-.53-.81-4.11,2.3-4.72a2.88,2.88,0,0,0,2-1.51c2.37-8.31,4.6-16.66,6.55-23.82l-6.09-5.39c1.45-1.31,2.94-2.58,4.33-4,.85-.83,2.23-1.84,2.2-2.73-.33-11,.09-22.14-1.66-32.93-1.72-10.62-5.69-20.88-8.8-31.73-6.83,1.18-12.4,1.75-17.76,3.13-18.94,4.86-37.85,9.83-56.68,15.1-12.58,3.51-25,7.75-37.5,11.38-24.55,7.11-49.09,14.3-73.77,20.92-13.57,3.64-27.48,6-41.15,9.31-4.46,1.07-10.31,0-12.85,4.86-3.2,6.1-8.55,7-14.28,7.82a4.4,4.4,0,0,0-2.71,1.1c-2.95,3.92-.22,11,4.57,11.64,6.95,1,14,1.36,20.89,2.48,10.5,1.71,20.54,4.54,26.57,14.36-3.31,4.77-6.24,2.46-9.38.5-3.42-2.13-6.84-5-10.61-5.7a265.12,265.12,0,0,0-28.94-3.57c-1.46-.11-4.35,2.74-4.53,4.44a46.87,46.87,0,0,0,.43,13.84c.72,3.72.3,8.75,6.21,9.58a52.91,52.91,0,0,1,10,2.57c1.5.53,2.66,2,4,3.07-1.06.95-2,2.45-3.22,2.73a47.17,47.17,0,0,1-8.92,1.06c-2.72.1-5,0-3.93,3.95,2.06,7.46,3.31,15.19,6,22.42,6.82,18.55,16.26,35.7,29.28,50.74,5.4,6.23,10,13.25,16.05,18.79,8.84,8.14,18,16.06,30.19,19.35,5.66,1.53,11,4.77,16.69,5.59a106.1,106.1,0,0,0,25.24,1,102,102,0,0,0,25.36-5.88c14.46-5.4,26.58-14.85,38.23-24.83l-5.7,7.75c6.27-2.7,23.37-19.53,24.67-25-1.47.94-2.41,2.44-3.65,3.64C417.14,659.48,413,663.27,409,667.1Zm27.55-227.22c5.94-2,2.3-4.5,1.17-6.3-5.89-9.39-12.39-18.42-17.83-28.05-3.33-5.89-7.66-10.77-13.2-13.76-13.4-7.23-26.89-14.7-42.2-17.21-10-1.63-19.75-.88-28.89,4.33-9.75,5.55-17.56,13.29-25.17,21.33a16.86,16.86,0,0,1-4.06,3c-.88.49-2.55,1-3,.57-.81-.78-1.67-2.55-1.3-3.34a32.28,32.28,0,0,1,4.8-7.76c11.47-12.76,24.43-23.43,42.33-25.07,15.46-1.41,30.19,2.08,44.2,8.7,3.94,1.87,8,3.47,12,5.2a65.09,65.09,0,0,0-5.67-13.73C392,353.88,384.31,340,376.39,326.24c-4.26-7.4-8.82-14.64-13.43-21.83-4.41-6.86-9.05-13.56-13.61-20.31-7.68-11.38-15.45-22.71-23-34.16-2-3-4-2.9-7-1.62-4.63,2-9.42,4.66-14.25,4.92-6.38.34-7.58,4.93-8.5,8.8-1.9,7.93-2.57,16.15-3.69,24.25-.21,1.52.08,3.15-.3,4.61-2.15,8.36-4.49,16.67-6.66,25-1.4,5.38-2.74,10.79-3.89,16.23-.78,3.71-1,7.54-1.78,11.26-2.69,13.38-11.52,25.1-10.7,39.45a16.5,16.5,0,0,1-.36,3c1.17-.29,2.58-.25,3.46-.92,10.39-7.86,21.79-14,33.46-19.66,3-1.43,6.26-2.14,9.4-3.18l.53,1.38c-2,1.23-3.92,2.79-6.09,3.63C297.11,372,287.57,381.93,276.2,389c-9.9,6.13-13.83,15.49-17.7,25.07-2.84,7-3.71,14.83-6.13,22.06A216.19,216.19,0,0,0,244,467.33a4.66,4.66,0,0,0,.29,1.46l2.76-1.41-5.8,33.08c69.1-17.77,136.43-35.94,204.08-55.38ZM319.44,240.78c-3.25-5.7-6-10.24-8.44-14.93-1-2-2.14-4.59.87-5.9,2.59-1.13,5.26-1.14,7,1.89,1.46,2.53,3,5,4.68,7.43,2,2.85,4.47,2.52,5.88-.23,4-7.85,5.61-16.63-5.92-19.62a16.88,16.88,0,0,1-1.77-.83c-7.45-2.92-14.92-4-22,.73-2.17,1.45-3.72,3.81-5.83,5.39-6.29,4.72-6.12,12-7.31,18.62-.36,2,1.64,4.42,2.64,6.87,1-.78,2-1.16,2.16-1.75,1.29-5.77,2.19-11.64,3.7-17.34.94-3.56,3.55-6.17,7.55-5.76,1.69.18,3.39,1.71,4.73,3,.48.46.34,2.45-.24,3-6,5.81-4.39,14-6.55,20.91-.75,2.42.43,4.79,3.55,3.86C309.14,244.64,314,242.7,319.44,240.78ZM446.31,444.67c6-1,11.28-1.77,16.43-2.89,1.9-.41,3.18-1.78,1.3-3.94s-3.33-4.72-5.4-6.64C453,426,447.2,421.08,441.43,416.06c-2.59-2.25-5.21-4.45-7.82-6.68l-1.41,1.26,18.65,28.15Zm-225,42.69,1.62.54L237.37,445C225.43,456.94,225.41,472.83,221.28,487.35Zm-17.36,67.59c0-3.51-.3-6,.06-8.43.8-5.38-.7-7.94-6.69-8.81-4.45-.65-4.92,1.14-4.24,4C194.41,547.22,198,551.33,203.92,554.94ZM321.82,704.3c8.77,3.12,16.31,3.35,23.95,0Z"/><path d="M580.88,722.91c-10.08-.37-10.36,10.17-14.72,16.82a57.07,57.07,0,0,0-4.23,8.08,16.19,16.19,0,0,0-.68,4.11,22.18,22.18,0,0,1,3.77.29c5.55,1.37,11.6,1.9,16.46,4.58,4.54,2.51,8.31,7,11.48,11.25s.37,8.85-2.56,11.84-6.94,5.67-10.71,6a94.33,94.33,0,0,1-24.16-.74,187,187,0,0,1-31-8.18c-7.47-2.69-13.56-.79-20.14,1.94-8.66,3.6-17.56,6.61-26.19,10.27-14.16,6-28.12,12.45-42.28,18.45-7.4,3.14-15,5.69-22.53,8.59-8.84,3.42-17.68,6.83-26.45,10.43-10.72,4.4-21.37,9-32,13.53a16.79,16.79,0,0,0-2.9,1.6c-3.31,2.27-6.58,4.59-9.87,6.9-5.14-7-3.47-10.58,2.74-15.33,8.46-6.48,18.37-9.44,27.86-13.29,12-4.89,24.65-8.38,36.83-12.95,10.54-4,20.85-8.53,31.25-12.88,8.52-3.56,17-7.18,25.52-10.78s17.13-7.65,25.92-10.85c11.9-4.33,24-8.35,36.92-4.32,2.41.75,4.43,2.71,6.69,4,3.47,2,4.83,1.26,5.83-3,1.15-5,3.77-9.73,6.16-14.36,4-7.68,8.25-15.2,12.4-22.78l-1.36-1c-3.1,3.61-6.07,7.34-9.33,10.8-4.56,4.84-9.3,9.51-14.05,14.17-2.53,2.48-5.44,1.88-7.86,0s-1.23-4.12.11-6.39c2.52-4.24,2.14-5.1-2.71-4.34-7.69,1.2-15.29,3.08-22.89,4.82-6.9,1.58-13.76,3.38-20.65,5-9.78,2.34-19.56,4.7-29.37,6.94-16.37,3.74-32.78,7.3-49.13,11.13q-25.42,5.95-50.75,12.3c-6,1.5-11.72,4-17.75,5.14-2,.38-4.6-2.1-6.62-3.12,1.26-8.33,7.77-8.71,12.89-10.27,11.84-3.61,23.81-6.78,35.8-9.85,4.62-1.18,9.45-1.6,14.18-2.37l.27-2c-4.67-2.77-9.24-5.74-14-8.28-7.15-3.79-14.62-7-21.59-11.05-2.47-1.44-3.86-4.72-6.63-8.32-3.34-.6-3.73-.24-2.93,4.85.72,4.61-2,11.54-5.45,13.64-2.89,1.78-9.5-1.08-9.25-4.4.44-5.88-1.2-11.29-2.08-16.92-.41-2.63,2.74-6.1,4.93-8.62.55-.64,3.91.49,5.47,1.56A7.62,7.62,0,0,0,346,727a33.4,33.4,0,0,1,23.59,4.48,61.89,61.89,0,0,1,8.95,7c.79.72.45,2.58.89,3.82.58,1.66,1,4.14,2.21,4.7,7.64,3.49,15.48,6.54,23.25,9.74a2.75,2.75,0,0,1,.87.46c7.78,7.44,15.76,1.32,23.49.07,9.16-1.48,18.19-3.85,27.21-6.09,3.86-1,7.53-2.69,11.35-3.84,3.48-1,7.06-2.5,10.59-2.5,13.12,0,25.11-5.6,37.85-7.16,6.62-.81,13.57-2.95,19.92,1.68.55.4,2.54-.63,3.52-1.42,7.73-6.26,15.28-12.73,23.09-18.87a23.16,23.16,0,0,1,8.19-4.11,7,7,0,0,1,5.52,1.68C578.41,718.41,579.61,721,580.88,722.91ZM552,774.11l0,1.7c7.69.66,15.4,1.89,23.06,1.68,2.86-.08,5.62-3.52,8.43-5.43-2.18-2.45-4-5.53-6.64-7.16s-6.13-2.19-9.29-2.35a10.12,10.12,0,0,0-6.45,2.17C557.79,767.51,555,770.94,552,774.11Z"/><path d="M273.44,1017.38a28.08,28.08,0,0,1-5.13.79c-8.43-.23-16.92-.1-25.27-1.09-11.15-1.33-22.15-4-33.3-5.29a133,133,0,0,1-26.07-5.92c-1.58-.51-3.65.21-5.42.66a51.48,51.48,0,0,0-5.77,2.35c3.78-9.45-4.11-9.2-8-11.61-6-3.72-8.26-9.51-4.67-16.35,3,1.9,5.92,3.93,9,5.57,1.66.88,4.26,4.39,4.42-1.65A213.67,213.67,0,0,1,176,959.27c1.78-12,3.54-24,6.07-35.81,3.23-15.08,7-30.05,11-45,2.73-10.19,6-20.24,9.41-30.25,4.3-12.76,8.67-25.52,13.49-38.09,6.39-16.64,12.95-33.22,20-49.59,7.88-18.32,16.43-36.36,24.56-54.57,1.18-2.64,1-6,2.63-8.28a11.33,11.33,0,0,1,6.86-4.19c1.21-.19,3.77,2.85,4.21,4.77.41,1.76-1,4.07-1.94,6-4.16,8.89-8.44,17.72-12.65,26.59C254,742.6,248.32,754.23,243,766.06c-4.42,9.86-8.5,19.89-12.42,30-2.9,7.46-4.47,15.54-8.12,22.57-7,13.45-10.12,28.21-15.53,42.18-3.44,8.89-4.77,18.58-7.19,27.87-2.29,8.78-4.78,17.51-7.17,26.27a312.58,312.58,0,0,0-9.68,54.93c-.56,6.33-1.37,12.63-2,19-.33,3.57.28,6.36,4.58,7.59,10.69,3.08,21.13,7.11,31.91,9.81,12.52,3.14,25.26,5.49,38,7.76,5.89,1.05,12,1.12,17.94,1.63Z"/><path d="M553.63,301.08c.51-5.88.7-10.39,1.34-14.82a20.36,20.36,0,0,1,10.19-15.19,26.67,26.67,0,0,0,5.1-4.73c6.08-6.38,13.55-8.87,22.22-8.13,3.37.29,10.87,6,11,9.53.18,4,2.55,5.14,5.33,6.52.56.28.84,1.13,1.5,2.07-6.79-.29-5.65,5.26-6.2,8.44a74.64,74.64,0,0,1-12.92,30.81c-2.8,4-3.76,9.24-6.58,13.19-4.19,5.89-8,11.79-9,19.09a6.88,6.88,0,0,0,.42,3.91c2.13,4,.74,9-3.6,10-4.07,1-8.27,2.39-11.66-2.86-3.22-5-8.52-8.61-12-13.49-7.55-10.65-18.76-17-28.35-25.21-4.09-3.51-5.21-8-6.21-13.42a43,43,0,0,1,2.58-24.67c2.61-6.51,9-11.28,15.23-4.23,5.79,6.6,11.39,13.36,17.17,20C550.25,299,551.71,299.7,553.63,301.08ZM564,347.3c2.74-4.94,5.84-10.39,8.82-15.89,5-9.29,10.21-18.51,14.93-28s8.19-19.32,7.52-30.14c-.43-6.87-4.26-9.49-10.77-7.34-11.79,3.9-24.08,15.44-22.62,30.47.63,6.5,1.41,13,2,19.48.3,3.5.38,6.83-4.28,8.06s-5.79-1.89-7.14-4.78c-5.68-12.11-13.66-22.56-23.09-31.92a7,7,0,0,0-4.21-1.84c-.68,0-1.76,1.71-2.14,2.82-2.72,8.12-1.07,16.09,2.42,23.36,1.69,3.52,5.82,5.88,8.91,8.7C544.16,329.26,554,338.17,564,347.3Z"/><path d="M448.33,805.62c6.7-5.15,10.79.82,15.43,2.32,11.12,3.58,22.17,7.16,33.58,9.88s22.63,7.32,33.92,11.1c9.34,3.13,18.93,5.66,28,9.52,14.24,6.09,28.09,13.09,42.13,19.67a41.17,41.17,0,0,0,4.4,1.65c2,.66,5,.68,5.66,2,1.15,2.12-3.74,7-6.53,6.29-6.93-1.73-14-3.45-20.51-6.23-9.51-4-18.43-9.47-27.95-13.48q-20.35-8.58-41.22-15.87c-8.55-3-17.55-4.66-26.22-7.34-11.05-3.43-22.13-6.88-32.85-11.2C452.9,812.61,450.85,808.42,448.33,805.62Z"/><path class="cls-1" d="M544.39,590.56c3.25-11.54,5.47-23.13,9.82-33.86s10.44-20.7,16.49-30.56c4.34-7.07,9.69-13.57,15-20a10.91,10.91,0,0,1,11.64-3.68c16.47,4.43,32.85,9.16,49.33,13.54,5.44,1.45,11.15,1.91,16.6,3.31,6.66,1.71,13.14,4.1,19.79,5.88,5.41,1.45,11,2.38,16.4,3.67,9,2.15,18,4.61,27.12,6.55,5.29,1.13,10.8,1.25,16.11,2.3,4.72.93,9.24,2.93,14,3.76,10.92,1.92,21.9,3.44,32.87,5.08,12.8,1.92,25.62,3.72,38.4,5.78a5.74,5.74,0,0,1,3.4,2.85,95.36,95.36,0,0,1,4.81,10.61c2.06,5.36,3,7.78-4.24,8.95-9.6,1.55-19.17,3.33-28.83,4.41-8.41.94-16.91,1-25.37,1.55-7.64.48-15.27,1.09-22.91,1.61-2.31.16-4.76-.23-6.9.42a14,14,0,0,0-5.88,3.6c-1.48,1.56-2.8,4.35-.3,5.86,1.87,1.13,4.63,1.2,6.95,1.06,6.61-.4,13.2-1.17,19.8-1.74,7.41-.64,14.85-1,22.22-1.87,15.16-1.86,30.28-4.05,45.43-6,1.42-.18,3,.5,4.43.77-.5,2.06-.37,4.79-1.66,6-1.47,1.38-4.21,1.39-6.4,2-13.28,3.74-27.05,3.46-40.62,4.66-9.35.83-18.69,1-27.71,4-6.54,2.23-13.72,3.25-16.9,11.18l4.34,5.36c11.42-8.48,24.93-9.83,38-12.12,8.1-1.41,16.43-1.49,24.64-2.27,8.05-.77,16.09-1.67,24.8-2.59-.15,3.25.46,7-.63,10.2-4.1,12-8.25,24-13.38,35.63a153.26,153.26,0,0,1-14.4,25.67A105,105,0,0,1,794,690c-8.46,7.5-17.59,14.24-26.46,21.26a86.45,86.45,0,0,1-33.93,16.79,284.68,284.68,0,0,1-37.49,5.73c-5.62.54-11.57-.9-17.21-2.15-13.35-3-27-5.13-39.8-9.8-19.17-7-38.33-14.91-54.05-28.39-7.76-6.66-13.93-15.24-20.5-23.22a85.24,85.24,0,0,1-16.31-31.56c-1.91-6.87-2.5-14.15-3.29-21.29-.61-5.54-.62-11.14-.91-17.06,10.94-3,21.4-1.1,31.54,2.92,2,.8,4.77,3.62,4.57,5.16-.29,2.14-2.67,4.91-4.81,5.74-7.26,2.84-14.84,4.86-22.22,7.4-1.7.58-3.1,2-4.64,3l.84,1.51c8.28-2.63,16.6-5.13,24.8-8,2.42-.84,4.6-2.51,6.76-4,3.73-2.57,3-5.68,1.27-9.25-4.34-8.72-12-11.67-20.92-12.69C555.94,591.61,550.6,591.17,544.39,590.56Zm49.32,13.62a11.55,11.55,0,0,1-1,2.64c-2,2.65-2.89,5.83-.24,7.92,1.36,1.07,4.48-.22,6.8-.18a5.73,5.73,0,0,1,3.43,1,51,51,0,0,1,4.28,4.73c6.69,7.37,17.88,8.51,26.63,3,4.76-3,9.78-5.59,14.73-8.28,5.11-2.77,7.9-8.56,4.91-11.74a43.85,43.85,0,0,0-11.41-8.84c-2.52-1.32-6.14-.66-9.27-.67-4.84,0-9.56-.25-13.29-3.94-2.77-2.74-5.63-5.41-8.37-8.19-6.58-6.67-19.12-5-21.09,5-.55,2.84.49,6.08-.37,8.75C588,599.89,589.48,602.39,593.71,604.18Zm78.5,10.9-.72-1.12c-2,.75-4.4,1-6,2.32-17.12,13.68-16.17,34.26-1.05,47.83,8.08,7.25,17.64,7.07,26.49.72a35,35,0,0,0,11.61-13.9c4.33-9.32,8.48-18.69,5.86-29.46-1.78-7.32-6-9.18-11.33-4.37,5.3,2.66,5.35,7.5,4.72,12.27a62.06,62.06,0,0,1-5.65,18.56c-2.89,6.09-10.52,12.87-17.68,13.28-5.3.31-12.62-5.16-15.67-10.6-2.43-4.33-4-8.32-2.37-13.32,1.31-3.94,1.32-8.46,3.23-12C665.7,621.44,669.29,618.44,672.21,615.08ZM654.12,536c-.07,1.29-.33,2-.1,2.23,3.57,3.67,2.76,7.09.42,11.28a149.38,149.38,0,0,0-7.87,17.65c-1.24,3.11-2.82,6.55-2.57,9.7.61,7.42,8.31,13.79,15.64,13.93,11.12.21,24.23-8.81,29.2-21.2-3.39,1.79-5.92,2.77-8,4.32a30.34,30.34,0,0,1-20.26,6.32c-4-.22-6.2-1.91-5.63-6.2.48-3.56.78-7.15,1.47-10.67a85.31,85.31,0,0,1,2.41-8.47c1-3.28,3.19-6.66,2.83-9.76C661.19,541.39,659.73,537,654.12,536ZM628,549.82c-1.6-.28-2.5-.75-3.11-.5-5.64,2.34-11.21,4.86-16.85,7.22-8.05,3.37-15.14,3.19-18.78-1.43-3.52-4.47-3-14.62,1-20.17a6.24,6.24,0,0,0,.92-4.76c-.34-1.13-2.66-2.74-3.46-2.44a12.28,12.28,0,0,0-5.43,3.87c-4.07,5.52-5.12,12-5.43,18.74a16.51,16.51,0,0,0,12.73,16.9c8.81,2,16.32-.95,23.94-4.85C619.25,559.46,624.82,556.71,628,549.82Z"/><path class="cls-1" d="M405.81,669.24c-11.64,10-23.77,19.43-38.23,24.83A102,102,0,0,1,342.22,700,106.1,106.1,0,0,1,317,699c-5.71-.82-11-4.05-16.69-5.59-12.15-3.29-21.35-11.22-30.19-19.35-6-5.54-10.65-12.56-16.05-18.79-13-15-22.46-32.18-29.28-50.74-2.66-7.23-3.91-15-6-22.42-1.09-4,1.21-3.85,3.93-3.95a47.17,47.17,0,0,0,8.92-1.06c1.22-.28,2.15-1.78,3.22-2.73-1.31-1.05-2.48-2.54-4-3.07a52.91,52.91,0,0,0-10-2.57c-5.91-.83-5.5-5.86-6.21-9.58a46.87,46.87,0,0,1-.43-13.84c.19-1.7,3.07-4.56,4.53-4.44a265.12,265.12,0,0,1,28.94,3.57c3.77.72,7.19,3.56,10.61,5.7,3.14,2,6.07,4.27,9.38-.5-6-9.83-16.07-12.65-26.57-14.36-6.92-1.13-13.95-1.53-20.89-2.48-4.78-.66-7.52-7.72-4.57-11.64a4.4,4.4,0,0,1,2.71-1.1c5.74-.83,11.08-1.72,14.28-7.82,2.54-4.84,8.39-3.79,12.85-4.86,13.68-3.27,27.58-5.67,41.15-9.31,24.69-6.62,49.22-13.81,73.77-20.92,12.55-3.63,24.92-7.87,37.5-11.38,18.83-5.26,37.74-10.23,56.68-15.1,5.36-1.38,10.93-2,17.76-3.13,3.11,10.85,7.08,21.11,8.8,31.73,1.75,10.79,1.32,21.93,1.66,32.93,0,.89-1.35,1.9-2.2,2.73-1.39,1.37-2.88,2.64-4.33,4l6.09,5.39c-2,7.17-4.19,15.51-6.55,23.82a2.88,2.88,0,0,1-2,1.51c-3.12.61-3.41,4.19-2.3,4.72,4.66,2.24,1.75,5.56,1.15,7.73-4.11,14.74-8.44,29.52-16.22,42.79a335.11,335.11,0,0,1-20.39,30.49c-6.61,8.88-14.16,17.06-21.34,25.5C412.91,663,410.9,665,409,667.1Zm-94-77,.1-2.57c-2.92-.17-6.09.34-8.71-.65-5.83-2.2-10.2.82-14.57,3.4s-6.31,7.72-6.33,12.09c-.05,9.1,16.59,16.92,24.73,12,10.25-6.2,16.25-15,16.06-27.45,0-2.41.54-4.19-2.88-4.23s-4.38,1.88-4.17,4.51c.66,8.25-3.14,14.35-9.3,19.06-3.7,2.83-8.33,2.82-11.68-.37-2-1.93-3.8-5.6-3.46-8.19.49-3.64,4.19-5.23,8-5.7C303.69,593.64,307.75,592.89,311.81,592.24Zm100.84-84.18c-7.49,2.35-8.81,6.6-7.88,13.68a17.16,17.16,0,0,0,24.84,12.93c12.65-6.2,18.09-16.12,20.14-28.92.27-1.68-1.25-3.65-1.93-5.49-1.8,1.63-4.93,3.09-5.17,4.92a27.91,27.91,0,0,1-12.77,20.6c-4.63,3.12-11.21,3.21-14.11-.26a15.19,15.19,0,0,1-3.38-12.29C412.6,511.76,412.55,510.26,412.66,508.06Zm-50.43,31.13c8.23.08,17-6.4,18.8-13.33,1.42-5.51,2.65-11.08,3.75-16.67a2.89,2.89,0,0,0-1.51-2.41,3.25,3.25,0,0,0-2.71,1.4c-2,4.6-3.94,9.28-5.65,14s-5.59,7.69-9.77,7.89c-2.76.13-5.94-3.39-8.44-5.78-.91-.87,0-3.39-.64-4.84-.83-1.88-2.27-4.75-3.66-4.88-4.34-.4-8,6.47-6,10.49a46.72,46.72,0,0,0,3.64,6.33C353.26,535.92,357.65,538.65,362.23,539.19Zm98.29,28.36c-5.85,5.16-7.38,14-15.54,16-3.89,1-8.09.68-12.14,1,0-2.8.06-5.6.1-8.4,0-.49.34-1.22.12-1.44a17.27,17.27,0,0,0-2.62-2.1c-2.58,2.91-5.81,5.61-7.28,9.05C421.26,586,424.41,592.93,428,593c5.91,0,12.4.2,17.58-2.09s9.24-7.42,13.59-11.51C463.38,575.42,463.59,572.29,460.51,567.55Zm-66.26,7.07-8,8.15-8-9.09c-.93.86-3.62,2.24-3.61,3.6,0,2.53,1.28,5.24,2.63,7.51,1.94,3.26,4.86,7,8.84,5.13,3.46-1.6,6.29-5.15,8.59-8.41C395.67,580.18,394.51,577.36,394.26,574.63Z"/><path class="cls-1" d="M319.44,240.78c-5.41,1.91-10.3,3.86-15.32,5.35-3.13.93-4.3-1.44-3.55-3.86,2.17-7,.57-15.11,6.55-20.91.57-.56.72-2.54.24-3-1.34-1.29-3-2.83-4.73-3-4-.42-6.6,2.2-7.55,5.76-1.51,5.71-2.41,11.57-3.7,17.34-.13.59-1.16,1-2.16,1.75-1-2.45-3-4.87-2.64-6.87,1.19-6.6,1-13.89,7.31-18.62,2.11-1.58,3.65-3.94,5.83-5.39,7.12-4.75,14.59-3.65,22-.73a16.88,16.88,0,0,0,1.77.83c11.53,3,10,11.76,5.92,19.62-1.41,2.75-3.89,3.08-5.88.23-1.68-2.39-3.22-4.89-4.68-7.43-1.74-3-4.41-3-7-1.89-3,1.31-1.9,3.93-.87,5.9C313.45,230.54,316.19,235.09,319.44,240.78Z"/><path class="cls-1" d="M446.31,444.67l4.54-5.87L432.2,410.64l1.41-1.26c2.61,2.22,5.24,4.43,7.82,6.68,5.76,5,11.6,10,17.21,15.13,2.07,1.91,3.53,4.48,5.4,6.64s.6,3.53-1.3,3.94C457.58,442.89,452.34,443.63,446.31,444.67Z"/><path class="cls-1" d="M221.28,487.35c4.13-14.52,4.16-30.41,16.09-42.31L222.9,487.9Z"/><path class="cls-1" d="M203.92,554.94c-5.92-3.61-9.51-7.72-10.87-13.29-.68-2.81-.21-4.6,4.24-4,6,.88,7.49,3.43,6.69,8.81C203.62,548.92,203.92,551.43,203.92,554.94Z"/><path class="cls-1" d="M405.81,669.24,409,667.1c4.06-3.83,8.17-7.62,12.16-11.51,1.23-1.2,2.17-2.71,3.65-3.64-1.3,5.52-18.4,22.35-24.67,25Z"/><path class="cls-1" d="M321.82,704.3h23.95C338.14,707.65,330.6,707.43,321.82,704.3Z"/><path class="cls-1" d="M552,774.11c3-3.17,5.76-6.6,9.07-9.39a10.12,10.12,0,0,1,6.45-2.17c3.16.15,6.66.74,9.29,2.35s4.46,4.71,6.64,7.16c-2.81,1.91-5.57,5.35-8.43,5.43-7.67.21-15.37-1-23.06-1.68Z"/><path class="cls-1" d="M564,347.3c-10.05-9.13-19.89-18-29.69-27-3.09-2.82-7.23-5.18-8.91-8.7-3.49-7.27-5.14-15.24-2.42-23.36.37-1.11,1.46-2.86,2.14-2.82a7,7,0,0,1,4.21,1.84c9.43,9.37,17.41,19.81,23.09,31.92,1.35,2.89,2.6,6,7.14,4.78s4.58-4.57,4.28-8.06c-.55-6.5-1.33-13-2-19.48-1.47-15,10.82-26.57,22.62-30.47,6.51-2.15,10.34.47,10.77,7.34.68,10.82-2.8,20.7-7.52,30.14s-9.9,18.66-14.93,28C569.89,336.91,566.79,342.36,564,347.3Z"/><path d="M593.71,604.18c-4.24-1.79-5.68-4.29-4.26-8.72.86-2.68-.19-5.91.37-8.75,2-10.09,14.52-11.71,21.09-5,2.74,2.78,5.59,5.44,8.37,8.19,3.74,3.69,8.45,3.92,13.29,3.94,3.13,0,6.75-.65,9.27.67a43.85,43.85,0,0,1,11.41,8.84c3,3.18.2,9-4.91,11.74-5,2.69-10,5.28-14.73,8.28-8.75,5.5-19.94,4.36-26.63-3a51,51,0,0,0-4.28-4.73,5.73,5.73,0,0,0-3.43-1c-2.32,0-5.44,1.25-6.8.18-2.65-2.09-1.77-5.27.24-7.92A11.55,11.55,0,0,0,593.71,604.18Zm41.49,11.27c-6.24-1.65-11.39-2.68-16.28-4.4-4.15-1.46-4.28.85-3.92,3.53.39,2.9,2.23,4.22,5.29,5C625.54,620.92,629.71,619.38,635.2,615.45Z"/><path d="M672.21,615.08c-2.92,3.36-6.51,6.36-8.56,10.19-1.91,3.55-1.92,8.07-3.23,12-1.67,5-.05,9,2.37,13.32,3,5.44,10.37,10.9,15.67,10.6,7.16-.42,14.8-7.19,17.68-13.28a62.06,62.06,0,0,0,5.65-18.56c.63-4.77.58-9.61-4.72-12.27,5.31-4.81,9.55-3,11.33,4.37,2.62,10.78-1.53,20.15-5.86,29.46a35,35,0,0,1-11.61,13.9c-8.85,6.35-18.41,6.53-26.49-.72-15.12-13.56-16.07-34.15,1.05-47.83,1.6-1.28,4-1.57,6-2.32Z"/><path d="M654.12,536c5.6,1,7.06,5.41,7.5,9.14.36,3.1-1.82,6.49-2.83,9.76a85.31,85.31,0,0,0-2.41,8.47c-.69,3.52-1,7.11-1.47,10.67-.58,4.3,1.65,6,5.63,6.2a30.34,30.34,0,0,0,20.26-6.32c2.11-1.55,4.65-2.53,8-4.32-5,12.39-18.08,21.41-29.2,21.2-7.33-.14-15-6.51-15.64-13.93-.26-3.15,1.32-6.59,2.57-9.7a149.38,149.38,0,0,1,7.87-17.65c2.34-4.19,3.15-7.61-.42-11.28C653.79,538,654,537.27,654.12,536Z"/><path d="M628,549.82c-3.18,6.89-8.75,9.64-14.47,12.58-7.61,3.9-15.12,6.9-23.94,4.85a16.51,16.51,0,0,1-12.73-16.9c.31-6.74,1.36-13.22,5.43-18.74a12.28,12.28,0,0,1,5.43-3.87c.81-.3,3.12,1.31,3.46,2.44a6.24,6.24,0,0,1-.92,4.76c-4,5.54-4.52,15.7-1,20.17,3.64,4.62,10.73,4.8,18.78,1.43,5.64-2.36,11.21-4.88,16.85-7.22C625.5,549.07,626.4,549.54,628,549.82Z"/><path d="M311.81,592.24c-4.07.65-8.12,1.4-12.2,1.9-3.8.47-7.5,2.06-8,5.7-.35,2.59,1.43,6.26,3.46,8.19,3.34,3.19,8,3.2,11.68.37,6.15-4.71,10-10.81,9.3-19.06-.21-2.63.81-4.55,4.17-4.51s2.84,1.83,2.88,4.23c.19,12.47-5.81,21.25-16.06,27.45-8.13,4.92-24.78-2.9-24.73-12,0-4.37,2-9.51,6.33-12.09s8.74-5.59,14.57-3.4c2.61,1,5.79.48,8.71.65Z"/><path d="M412.66,508.06c-.1,2.2-.06,3.7-.26,5.17a15.19,15.19,0,0,0,3.38,12.29c2.9,3.47,9.48,3.38,14.11.26a27.91,27.91,0,0,0,12.77-20.6c.24-1.83,3.37-3.29,5.17-4.92.69,1.84,2.2,3.8,1.93,5.49-2,12.8-7.49,22.73-20.14,28.92a17.16,17.16,0,0,1-24.84-12.93C403.85,514.66,405.17,510.41,412.66,508.06Z"/><path d="M362.23,539.19c-4.58-.54-9-3.27-12.21-7.78a46.72,46.72,0,0,1-3.64-6.33c-2-4,1.68-10.88,6-10.49,1.39.13,2.83,3,3.66,4.88.64,1.45-.27,4,.64,4.84,2.5,2.39,5.68,5.91,8.44,5.78,4.18-.2,8.08-3.19,9.77-7.89s3.61-9.41,5.65-14a3.25,3.25,0,0,1,2.71-1.4,2.89,2.89,0,0,1,1.51,2.41c-1.1,5.59-2.33,11.16-3.75,16.67C379.24,532.79,370.46,539.27,362.23,539.19Z"/><path d="M460.51,567.55c3.07,4.73,2.87,7.87-1.31,11.81-4.35,4.1-8.38,9.21-13.59,11.51S433.94,593,428,593c-3.63,0-6.78-6.92-4.88-11.34,1.47-3.44,4.7-6.14,7.28-9.05a17.27,17.27,0,0,1,2.62,2.1c.22.22-.11.95-.12,1.44,0,2.8-.07,5.6-.1,8.4,4.06-.28,8.25,0,12.14-1C453.14,581.52,454.67,572.71,460.51,567.55Z"/><path d="M394.26,574.63c.25,2.73,1.41,5.56.46,6.89-2.3,3.26-5.13,6.81-8.59,8.41-4,1.84-6.9-1.87-8.84-5.13-1.35-2.27-2.61-5-2.63-7.51,0-1.36,2.69-2.74,3.61-3.6l8,9.09Z"/><path class="cls-1" d="M635.2,615.45c-5.5,3.93-9.67,5.47-14.91,4.13-3.06-.78-4.9-2.1-5.29-5-.36-2.68-.23-5,3.92-3.53C623.82,612.78,629,613.8,635.2,615.45Z"/></svg>