<svg id="Layer_1" data-name="Layer 1" xmlns="http://www.w3.org/2000/svg" viewBox="0 0 1019.13 1068.29"><defs><style>.cls-1{fill:#fff;}</style></defs><title>elves_1</title><path d="M593.77,83.59c-7.18,10.08-16.74,19-32.75,18a16.79,16.79,0,0,0,2.77,3.15c9.63,6.61,19.22,13.29,29,19.61,8.93,5.74,18.3,10.81,27.13,16.69,3.73,2.48,6.72,6.16,9.79,9.53,3.54,3.89,6.94,7.92,10.13,12.1,3.33,4.36,5.8,9,2.27,14.58-3.76,5.93-9.42,7.1-15.89,6.79-14.16-.68-24.58-8.71-34.47-17.57-11.39-10.21-20.37-22.38-27.85-35.69a30.36,30.36,0,0,0-3.14-3.6c.08,11.33.5,20.78,2.66,30.53,2.85,12.81,7.36,25.64,5.34,39.29-.59,4,.52,8.26.56,12.4.11,13.65-5.51,24.91-15.06,34.26-3.48,3.4-8.29,5.11-13,3.72-2.29-.68-4.63-3.69-5.49-6.15A99.19,99.19,0,0,1,531,222.27c-.48-3.44,1.8-7.18,1.89-10.81.07-3.26-1.16-6.56-2-11,.55-2.33,2-6.27,2.26-10.28.24-3.68-.79-7.45-1.38-12.2l2.28-1.59c-2-2.74.41-4,4.67-5.35-13.4-2.27-19.59-10.22-22.38-21.5l-1.48-.36c-1.44,2.82-3.21,5.52-4.26,8.48-3.65,10.25-9,19.49-14.62,28.81-4.39,7.27-9.81,13.07-15.68,18.74-6.16,6-12.83,11.17-22.07,11.22l-4.42-5.72c1.33-2.93,2.61-6.14-3.21-7.81,1.51-3,2.81-5.55,4.13-8.12.07-.14.34-.31.32-.36-3.83-7.84,5.87-10.84,6.14-17.21.07-1.77.83-3.86.13-5.24-1.46-2.9-.35-4.57,1.61-6.42.53-.5.55-1.57.77-2.38.61-2.25,1.28-4.49,1.78-6.77a3.5,3.5,0,0,0-.58-2.75c3.19-8.28,6.25-16.61,9.61-24.82,3.92-9.58,7.66-19.29,14.4-27.39,3.17-3.81,6.17-7.81,9.68-11.28,2-2,4.84-3.21,7.43-4.53,3.88-2,8.67-1.54,11.59-6.27,2.07-3.37,6.46-2.63,10.7,0-3.36-13.35-6.73-25.63-9.5-38-2.67-12-7.31-23.93-5-36.45L516,4.3c.79,1.59,2.23,3.17,2.27,4.78a93.67,93.67,0,0,0,3.84,24.4c2.88,9.77,4.06,20,6.35,30,1.26,5.51,3.33,10.83,4.94,16.26s2.84,10.77,4.71,16a6.79,6.79,0,0,0,4.15,3.76c8.95,2,12,7.25,11.86,15.09,0,1.57,1.73,3.18,2.67,4.78.41-.29.93-.56.9-.67-1.72-6-3.66-11.89-5.21-17.91-1.61-6.2-2.92-12.47-4.24-18.74-1.72-8.23,3-14.37,7-20.71a44,44,0,0,1,2.85-3.56l-6.88.95c1.39-3.88,3.19-5.44,7-5.23s7.88-.83,11.82-.82c11.69.05,24.15,8.25,25.46,22.18.28,3,1.46,5.2,5.18,6,6,1.27,11.7,4.27,17.72,5.08,10.64,1.43,20.7-.82,29.21-8a4.92,4.92,0,0,0,.65-7.48C642.47,63.86,635,60.55,626.3,59c-8-1.42-15.73-4.54-23.72-6.24-11.47-2.44-23.09-4.15-34.59-6.48-1.39-.28-2.4-2.45-3.59-3.74,1.21-1,2.61-2.92,3.61-2.74,7,1.28,13.86,3,20.76,4.6,7.68,1.79,15.37,3.53,23,5.49a114.84,114.84,0,0,1,11.82,3.77c7.72,2.9,15.63,5.47,22.9,9.26,3.07,1.6,5.23,5.7,6.86,9.11,2.3,4.79.26,9.35-3.73,12.6-9.71,7.92-20.76,8.5-32.2,5.93C609.75,88.84,602.29,86.14,593.77,83.59Zm-72.9,3.6c-2.57.55-4.69,1.65-6.53,1.29a13.05,13.05,0,0,0-14,5.61c-6,8.47-12,17-16.84,26.1-4.23,8-7.16,16.78-10,25.44-2.49,7.56-4.07,15.42-6,23.16-1.29,5.09-2.66,10.16-3.76,15.29a114.6,114.6,0,0,0-2.75,15.78c-.2,2.82.76,7.8,2.21,8.21,2.69.75,6.52-.45,9.17-2,9.24-5.54,15.7-14,21.71-22.69a110.24,110.24,0,0,0,8.19-13.5,117.69,117.69,0,0,0,6.53-16.11c2.35-7.3,4.21-14.77,6.12-22.2,1.48-5.77,1.57-11.68,4-17.47,3.69-8.65,6.21-17.95,5.53-27.68-.35-5-1.8-5.82-6.77-3.49Zm38.86,65.66a30.27,30.27,0,0,0-4.26,2.88c-2.62,2.59-5.13,5.3-7.57,8.06-1.6,1.8-4,3.6-4.33,5.67-1.41,8.53-3.85,16.79-4.32,25.62-.62,11.62-1.22,23.21-.57,34.79.23,4.11,1.39,8.73,6,10.76,4.27,1.87,6.35-1.94,9.13-3.84a10.24,10.24,0,0,0,1.64-1.56c9.86-10.69,10.75-24,9.84-37.31C564.31,183.23,561.75,168.62,559.73,152.86Zm2.58-43.9-1,1.56a40.43,40.43,0,0,1,3,5.51c4.53,12.62,11.91,23.57,20.52,33.58,5.48,6.37,12.3,11.58,18.42,17.41,8.1,7.72,18,10.68,28.86,10.95a5.83,5.83,0,0,0,2.93-.52c4.33-2.51,4.58-5.23.68-10.9-8-11.62-18.4-20.86-29.78-28.95S582.83,121.8,571.18,114C568.36,112.15,565.28,110.64,562.31,109Zm-35.37,47.71,11.2,1.21-4.82-4.19c7.35.27,4.77-5.8,7.25-8.45.82-.87,2.23-1.18,3.37-1.74.43,1.22,1.18,2.42,1.22,3.65.16,4,.06,8.07.06,12.11l1.69.71c2.18-3.22,4.19-6.56,6.57-9.62,3.48-4.5,1.91-9.11-1.35-11.86-7.36-6.2-9.79-14.65-13-23-.84-2.19-3.54-3.88-5.71-5.31-3.06-2-5.41.39-6.49,2.58-1.91,3.88-2.93,8.18-4.37,12.3C518.55,136.56,520.1,147.2,526.94,156.67Zm42-97.08,21.24,17.07c.36-7.87-2.33-12.36-9.13-17.12-7-4.94-11.37-5.73-16.93-.79a28.23,28.23,0,0,0-9.92,21.66c.07,7,7.51,14.15,14.34,14.74,8.7.75,18.64-4.87,20.44-11.62,1.15-4.32-2.89-5.5-5-7.59-3.84-3.76-8.25-6.94-12.18-10.62C570.53,64.19,570.14,62.2,568.89,59.58Zm-39.16,25c-2,6.64-3,13.12-1.89,19.93,5.89-1.67,7.2-4.95,5.52-9.69Q531.56,89.68,529.73,84.56Zm16.21,29.87c-2.06,4.37,1.43,10.12,6.92,11.84Z"/><path class="cls-1" d="M520.87,87.19l-3.25-4.28c5-2.34,6.42-1.51,6.77,3.49.68,9.73-1.84,19-5.53,27.68-2.47,5.79-2.56,11.69-4,17.47-1.91,7.44-3.77,14.9-6.12,22.2a117.69,117.69,0,0,1-6.53,16.11,110.24,110.24,0,0,1-8.19,13.5c-6,8.72-12.47,17.15-21.71,22.69-2.64,1.58-6.48,2.79-9.17,2-1.45-.41-2.41-5.39-2.21-8.21a114.6,114.6,0,0,1,2.75-15.78c1.1-5.13,2.48-10.2,3.76-15.29,2-7.74,3.55-15.6,6-23.16,2.85-8.65,5.78-17.42,10-25.44,4.82-9.13,10.89-17.63,16.84-26.1a13.05,13.05,0,0,1,14-5.61C516.18,88.84,518.31,87.75,520.87,87.19Z"/><path class="cls-1" d="M559.73,152.86c2,15.77,4.57,30.37,5.58,45.08.91,13.27,0,26.62-9.84,37.31a10.24,10.24,0,0,1-1.64,1.56c-2.78,1.91-4.86,5.71-9.13,3.84-4.63-2-5.8-6.65-6-10.76-.64-11.58,0-23.18.57-34.79.47-8.83,2.91-17.09,4.32-25.62.34-2.08,2.74-3.88,4.33-5.67,2.45-2.76,5-5.47,7.57-8.06A30.27,30.27,0,0,1,559.73,152.86Z"/><path class="cls-1" d="M562.31,109c3,1.68,6,3.19,8.87,5.08,11.64,7.77,23.36,15.44,34.76,23.55s21.79,17.33,29.78,28.95c3.9,5.67,3.65,8.4-.68,10.9a5.83,5.83,0,0,1-2.93.52c-10.89-.26-20.76-3.23-28.86-10.95-6.12-5.83-12.93-11-18.42-17.41-8.62-10-16-21-20.52-33.58a40.43,40.43,0,0,0-3-5.51Z"/><path class="cls-1" d="M526.94,156.67c-6.84-9.46-8.39-20.11-4.37-31.6,1.44-4.11,2.46-8.42,4.37-12.3,1.08-2.19,3.43-4.6,6.49-2.58,2.17,1.43,4.86,3.12,5.71,5.31,3.21,8.33,5.63,16.78,13,23,3.26,2.74,4.83,7.35,1.35,11.86-2.37,3.07-4.39,6.41-6.57,9.62l-1.69-.71c0-4,.1-8.08-.06-12.11,0-1.23-.8-2.43-1.22-3.65-1.14.57-2.55.87-3.37,1.74-2.49,2.65.09,8.71-7.25,8.45l4.82,4.19Z"/><path class="cls-1" d="M568.89,59.58c1.25,2.62,1.64,4.61,2.84,5.73,3.93,3.68,8.34,6.86,12.18,10.62,2.13,2.09,6.17,3.27,5,7.59-1.8,6.74-11.74,12.37-20.44,11.62-6.83-.59-14.27-7.77-14.34-14.74a28.23,28.23,0,0,1,9.92-21.66c5.56-4.94,9.89-4.14,16.93.79,6.8,4.76,9.5,9.25,9.13,17.12Z"/><path class="cls-1" d="M529.73,84.56q1.82,5.12,3.64,10.24c1.67,4.74.37,8-5.52,9.69C526.7,97.69,527.74,91.2,529.73,84.56Z"/><path class="cls-1" d="M545.94,114.43l6.92,11.84C547.36,124.56,543.88,118.8,545.94,114.43Z"/><path d="M898.14,745.26c-5.69,3.35-11.18,7.13-17.12,9.94-6.48,3.06-13.39,5.2-20.09,7.78-8.07,3.1-16.08,6.38-24.22,9.3a112.77,112.77,0,0,1-12.43,3.35c-6,1.4-7.61,5.9-9.35,11.12S810,797.05,807.14,802c-3.38,5.83-6.68,11.78-10.77,17.09-5.42,7-11.43,13.65-17.46,20.21-10.87,11.81-23.86,20.66-38,28.31a142.89,142.89,0,0,1-35.14,13.69,184.09,184.09,0,0,1-58.63,4.49C632,884.48,617,882,603.31,874.85c-10.43-5.41-20.39-11.62-28.86-19.84-9.35-9.07-19-18-25-29.88-3.56-7.1-7-14.24-10.56-21.34-1.66-3.34-3.37-6.55-8.07-3.93-.83.46-2.14.07-3.54.07-1.22,19.17-9.6,36.05-20.08,53.17,6.12,2,12.5,4.39,19.05,6.12,14.71,3.9,29.49,7.57,44.29,11.14,6.52,1.57,13.29,2.2,19.69,4.13,6.12,1.84,13.13,3.51,17.49,7.63,4.76,4.49,9.62,10.52,9.21,18.17-.09,1.71-2.21,3.3-3.4,5-.73-1.53-2.1-3.06-2.09-4.58a13.3,13.3,0,0,0-9.31-12.21c-6.78-2.19-13.82-3.62-20.8-5.15-13-2.84-26-5.19-38.91-8.36S516.91,868,504.23,864.2c-6.62-2-13.07-4.56-19.57-7-9.87-3.63-19.78-7.17-29.56-11q-15-5.92-29.76-12.45c-3.38-1.51-3.29-8.93.17-10,3-.89,6.83-1.09,9.58.09,16.64,7.12,33,14.77,49.59,22.12a14.66,14.66,0,0,0,6.33.89c-3.49-3.86-3.4-10.7-11-10.9-3.37-.09-3.62-7.21-1.15-10.17,5.21-6.23,10-12.84,14.85-19.22-6.14-6.29-13.46-4.41-20-5.17a266.63,266.63,0,0,0-28.94-1.73c-9.19-.08-18.39.74-28.48,1.2,4.88,6.85,14.71,6.76,15.66,15.6-7,4-12.85-.38-18.73-2.86-2.76-1.17-4.83-4-7.11-6.26-1.29-1.25-2.18-3-3.59-4-2.33-1.73-4.83-2.05-5.37,1.69-.4,2.79-.9,6,.05,8.47,2.56,6.68,2.8,13.2,2.17,20.3-.47,5.31-2.13,7.49-7.07,7.8-3.52.22-6-1.15-6.19-4.83-.49-7.8-.63-15.62-1.17-23.41-.07-1.07-1.37-2.4-2.44-3s-2.7-.49-4.07-.68l.1-1.9,6.63.36c2.36-5.29,1.76-6.17-3.62-5.92-11.8.55-23.62,1.67-35.39,1.28-11.3-.37-22.57-2.16-33.78-3.79-1.64-.24-4.13-3-4.09-4.61.07-2.7,1.12-6.16,3-7.85,3-2.62,6.94-4.13,10.62-5.85,1.07-.5,2.57-.08,4.3-.08a11.88,11.88,0,0,1-.94,2.11c-1,1.32-2.09,2.58-3.15,3.86,1.77,1,3.45,2.54,5.32,2.83a176.8,176.8,0,0,0,45.72.56c4.5-.48,9.08-.25,13.61-.46,1.92-.09,3.83-.48,5.57-.72-5.27-9.46-10.79-18.43-15.36-27.85A231.21,231.21,0,0,1,367.28,737c-1.4-4,2.07-12.1,4.82-14.28,3.42-2.69,5.46-.92,7,1.89a14.93,14.93,0,0,1,1.37,5.4c1.86,15.85,7.11,30.32,16.85,43.11,2.53,3.32,5.15,6.89,6.46,10.77,2.09,6.15,6.87,5.64,11.44,5.74,15.2.33,30.46-.19,45.6.92a63,63,0,0,1,28.35,9.29c5.28,3.24,7.93,2,13.83-3.75a44.43,44.43,0,0,1,13.21-8.54c4.62-2,9.49,1.42,11.41,6.87,1.47,4.15,2.85,4.48,6.47,2.06-2.42-8-5.19-15.74-7-23.68-1.9-8.23-4.51-15.84-10.21-22.33-6.25-7.11-9.51-15.46-7.62-25,.54-2.75,1.9-5.91,3.94-7.68,4.38-3.8,2.35-8.3,2.37-12.57,0-4.56-.59-9.14-.36-13.68.41-8,.88-16,2-23.94s3-15.79,4.83-23.6a85.56,85.56,0,0,1,11.72-27.1c1.08-1.66,1.15-4,1.94-7-2.06.37-4,1.17-5.73.93-2.63-.36-7.09-1.07-7.34-2.3-.54-2.76.15-6.15,4.11-7.63,3.1-1.16,5.77-3.5,8.62-5.34q10.65-6.89,21.28-13.79c-2.82-6.05-13.37-7.19-11.25-17.15,7.67-1.05,12.66,4.16,17.71,8.33,3,2.46,5.38,3.15,8.32,1.23,17.08-11.19,34.4-22.05,51-33.9,10.72-7.65,20.67-16.47,30.43-25.35,9.59-8.72,18.58-18.11,27.69-27.35,4.87-4.94,9.14-10.49,14.18-15.23,9.57-9,19.22-18,29.37-26.31,9.71-8,19.11-16.65,31.47-20.41-2.91-4.81-6.63-9.06-8.23-14-3.41-10.51,3.26-21.2,12.7-28.27,2-1.46,4.09-2.68,6.11-4.06.67-.45,1.82-1.1,1.77-1.55-.71-7,3.45-3.91,6.78-3.63,15.82,1.33,26.1,12.14,37,21.66,5.38,4.7,5.25,20.55-.16,25.41a96.38,96.38,0,0,1-17.07,12c-4,2.23-6.07,3.67-4.62,9,3.24,11.82,5.92,23.82,8,35.89,1,5.93.07,12.18.41,18.26.21,3.76,1.22,7.47,1.81,11.21,1.71,10.85,3.49,21.69,5.05,32.56,1.52,10.57,1.73,21.46,4.44,31.7,3.49,13.2,4,26.68,6.18,40,2.47,15.34,4.75,30.72,7.23,46.06,1.57,9.65,3.54,11,13.36,13.06,9,1.89,18,4.46,26.82,7.14a56.48,56.48,0,0,1,11.32,5.2c1.56.89,2.51,2.86,3.4,4.78-17.2-2.23-33.5-7.8-51.4-10.41,2.25,7.84,4.55,14.09,5.73,20.54,1,5.53.77,11.29,1,17,.13,2.87-.13,5.79.36,8.59a4.27,4.27,0,0,0,3.07,2.57c9.16.86,18.36,1.35,27.52,2.16,8.83.78,17.64,1.86,26.46,2.72,2.47.24,5,.18,7.46.25ZM779.62,779c2.78-.38,5.13-.4,7.27-1.06,4.35-1.33,8.5-3.89,12.9-4.36,8-.84,10.92-5,13.44-12.34a180.63,180.63,0,0,0,6.29-24.11c.76-3.91-.31-4.45-3.19-4.9-8.62-1.35-17.26-2.64-25.87-4.07-1.58-.26-3.44-.69-4.48-1.73s-1.66-3.46-1.1-4.15c2.21-2.69,4.9-4.77,9-3.78,7.14,1.75,14.34,3.28,21.54,4.8,5.94,1.26,8.09-.57,7.59-6.45-.53-6.22-.73-12.53-2-18.61a84.32,84.32,0,0,0-5.79-18.81c-3.1-6.61-10-8.09-16.64-9.67-12.81-3-25.58-6.31-38.22-10-13-3.77-25.7-8.26-38.59-12.25-18.84-5.83-37.91-11-56.53-17.4-17.55-6.08-34.81-13.11-51.9-20.41-14.11-6-27.84-13-41.62-19.74-2.68-1.32-4.94-1.51-7.11.2-4.07,3.21-8.68,6.1-11.74,10.14a138.22,138.22,0,0,0-13.24,21.22c-4.65,9.24-9.18,18.71-12.16,28.57-3.74,12.36-5,25.31-5.36,38.28-.64,20.81,2.81,41.08,7.82,61.14,1.44,5.75,8.53,10.75,14.4,10.1,3.91-.43,7.69-1.46,9-6.53,1.56-6,4.08-11.66,6.16-17.41,4.36,6.12,2.48,13,.12,19.33C555.48,766.17,547,770,534.88,766.39c1.93,5.13,3.24,9.22,5,13.12,6.53,14.54,12.84,29.16,22.82,41.91a157.48,157.48,0,0,0,40,36c16.08,10.22,34.13,14.72,52.7,15.48,13,.53,26-2.19,39.1-3.21a86.31,86.31,0,0,0,32.16-9.08c5.71-2.85,11.67-5.29,17.08-8.63,7.62-4.7,14.69-10.28,22.26-15.08,9.14-5.81,14.65-15,21.44-22.87,5.49-6.36,9.33-14.2,13.53-21.59,1.46-2.57,1.8-5.77,2.93-9.61-3.11.48-5,.4-6.53,1.08-3.39,1.52-6.48,3.77-9.94,5a9.88,9.88,0,0,1-6.77.06C777.32,787.57,777.29,782.7,779.62,779Zm34.29-117.8,1.81-.33c-.77-4.29-1.11-8.72-2.42-12.84-1.5-4.7.52-9.67-2.42-14.48-1.78-2.92-.26-7.69-.89-11.52-1.72-10.36-4-20.63-5.68-31-1.51-9.54-2.31-19.2-3.69-28.77s-3.09-19-4.64-28.55c-1-5.86-1.87-11.72-2.81-17.58-1.81-11.23-3.6-22.46-5.46-33.68-.79-4.75-1.54-9.52-2.65-14.2-1.22-5.12-2.9-10.14-4.29-15.22-1.17-4.29-1.54-9-3.65-12.74-.86-1.53-5.37-1-8.2-1.48-.7-.13-1.3-.8-1.95-1.21-8.11-5.18-15.91-3.27-23,1.76-9.2,6.52-18.21,13.36-26.87,20.59-5.68,4.74-10.61,10.39-15.85,15.66-4.81,4.82-11.12,8.9-14,14.68-4,8-11,12.43-16.83,18.31-3.83,3.87-7.52,7.89-11.31,11.8s-7.37,8-11.43,11.52c-5.35,4.7-11.07,9-16.63,13.45l.8,1.32c4.83-1.35,9.65-2.75,14.5-4a109.48,109.48,0,0,1,38-2.86c3.49.3,7.08-.56,10.22-.85,1.33,1.11,2.72,2.92,4.55,3.69,12.71,5.38,24.47,11.94,33.71,22.64,7,8.11,15.17,15.3,15.41,27.18.09,4.38,1.37,8.93.51,13.06-.7,3.34.31,4.38,2.6,5.8,8.45,5.24,17.17,10.13,25.16,16,9.54,7,18.6,14.69,27.52,22.49C807.79,653.1,810.65,657.41,813.92,661.25Zm-69.11-41.6c-2.2-2.24-3.78-4.65-6-6-7-4.15-14.31-7.81-21.42-11.8-5.62-3.15-11.22-6.36-16.65-9.82-6.7-4.26-13.21-8.8-19.81-13.22l.76-1.27c2.59.81,5.38,1.26,7.75,2.5,10.22,5.35,20.32,10.9,30.44,16.43,6,3.29,12,6.69,18,10,2.35,1.29,4.94,1.6,5.18-1.8.54-7.79-.33-15.46-5.7-21.66A123.66,123.66,0,0,0,726,571.71c-16-14.19-34.29-22.86-56-21.68-10.51.57-21,2.63-31.4,4.24-22,3.39-41.15,13.15-59,27.22a41.32,41.32,0,0,0,4.61,3.3c11.38,5.89,22.65,12,34.26,17.44,10.13,4.71,20.57,8.82,31,12.74,12.48,4.67,25,9.19,37.75,13.17,17.05,5.35,34.29,10.1,51.43,15.15,16.67,4.91,33.33,9.9,50,14.78,3,.88,6.09,1.45,9.51,2.25-.19-1.37,0-2.25-.4-2.61-6.24-6.31-12.11-13.1-19-18.66-7.07-5.74-15-10.42-22.79-15.27C752.39,621.47,748.8,618.14,744.81,619.64Zm11.65-215.3c.58,2,.58,4.6,1.85,6a57.06,57.06,0,0,0,10.16,9.37c2.36,1.63,5.45,3.13,8.59-.21,1.08-1.14,5-1.1,6.56,0,6.45,4.38,9.86,4.89,16.16.38,2.7-1.94,6.16-4.35,6.86-7.15.77-3.08-.3-7.51-2.21-10.2-6.31-8.9-15-15.32-24.63-20.29-1.24-.64-3.52-1-4.42-.28-4.06,3.12-8.4,6.21-11.48,10.2C761.15,395.71,755.57,398.05,756.45,404.35ZM891.59,740.53c-2.12-1-2.82-1.64-3.56-1.69-4.12-.27-8.26-.23-12.37-.64q-16.44-1.62-32.84-3.54c-8.65-1-11.6,1.14-13.73,9.65-1.6,6.39-3.65,12.67-5.38,19a3.53,3.53,0,0,0,.48,2.8c.39.46,1.74.4,2.56.18,2.18-.58,4.32-1.34,6.46-2.08,10.84-3.76,21.83-7.18,32.47-11.43C874.14,749.43,882.21,745,891.59,740.53ZM488.7,834.77c.75,1.15,1.78,2.67,2.76,4.21,5.43,8.49,9.72,8.49,14-.62A295.41,295.41,0,0,0,516.59,811c1.45-4.13,3.35-8.87-.15-13.64-3,1.72-6.53,2.84-8.65,5.25-3.12,3.53-5.31,7.91-7.7,12C496.22,821.29,492.5,828,488.7,834.77Z"/><path d="M435.88,417.34A49.72,49.72,0,0,0,426.31,407c-5.13-4.22-10.88-7.68-16.13-11.77-6.18-4.81-11.62-10.76-18.26-14.76-13.56-8.16-25.52-18.34-38-27.85-10.33-7.84-20.82-15.48-31.24-23.21-5.82-4.32-11.73-8.52-17.41-13-6.26-4.94-12.2-10.28-18.48-15.21-10.17-8-20.6-15.63-30.74-23.65q-17-13.43-33.58-27.35a9.81,9.81,0,0,1-2.58-3.63,20.4,20.4,0,0,1-9.73-6.09c0,.23,0,.46,0,.69-5.47-3.67-11.19-7.15-16.41-11.25-1.49-1.17-2.45-4.35-2.08-6.3a52.21,52.21,0,0,1,4.12-12.37c3.32-7,1.86-13-3.32-19.26v4.31c-1.86-1.51-2.84-2.61-4.07-3.22a14.59,14.59,0,0,0-3.72-.77,30.19,30.19,0,0,1,1.95,3.07c1,2,2.4,4.09,2.64,6.24.86,7.79-3.79,13.55-8,19.82l-.48-.28a21.7,21.7,0,0,1-7.86,9.35c.41.31.82.6,1.23.92-6.21,3-11.52,6-17.18,8.09a6.72,6.72,0,0,1-1.87.43,19.67,19.67,0,0,1-5.08.68c-11.76,0-20.46-9.61-21-21a18,18,0,0,1,1.28-7.47A19.57,19.57,0,0,1,136,199.34a6.33,6.33,0,0,0,.31-.91c1.41-5.73,6-6.63,10.62-7.37,2.35-.38,5.12.81,7.19,0s3.34-3.25,5-5c-1.5-1.26-3-3.57-4.49-3.61-9.57-.27-18.62.46-26.64,7.51a39.61,39.61,0,0,0-12.43,21.18c-3,12.94,7.53,29.88,20.58,36.12,1.31.63,3,1.82,3.26,3a83.44,83.44,0,0,1,.75,10c.48,7.34,1,14.67,1.51,22.69l-.08,0a23.19,23.19,0,0,1,1.05,5.92,17.63,17.63,0,0,1-.16,3.24c.11.7.2,1.4.25,2.11.38,1.15.37,3.08.27,6.12l-.26.07a23.1,23.1,0,0,1,1.51,7.2,17.64,17.64,0,0,1-.15,3.22c.36,2.21.83,4.62,1,7.07.32,4.06.25,8.15.56,12.22,1,13.11,2.15,26.21,3,39.34.41,6.21,0,12.47.46,18.67.94,12.42,2.35,24.8,3.35,37.21,1.32,16.25,2.6,32.5,3.53,48.78.2,3.58-1,7.27-1.8,10.86s-1.29,6.95,2.41,9,11.83-.91,13.09-5c1.45-4.76,2.94-9.83,2.77-14.7-.32-9.32-2-18.59-2.76-27.91-.55-6.52-.3-13.11-.87-19.62-1-11.9-2.7-23.75-3.63-35.65-1.24-15.94-2-31.91-3-47.87-.91-13.47-2-26.92-2.94-40.39a4.77,4.77,0,0,1,1-2.91,22.9,22.9,0,0,1-3.54-11.26,18,18,0,0,1,1.1-7,4.5,4.5,0,0,1-1.69-3.69c-.28-8.71-.91-17.42-1.42-26.36a5.12,5.12,0,0,1,1.38-.7c9.25-2.12,17.14-7,24.35-12.82,3-2.47,5-.35,6.64.79,6.62,4.5,12.93,9.44,19.39,14.18,2.46,1.81,4.25,3.81,4.93,6.69a19.8,19.8,0,0,1,8.79,4c0-.06,0-.11,0-.17,5,3.92,9,7,12.93,10.18,12.23,9.8,24.39,19.69,36.67,29.43,10,7.92,20.15,15.67,30.24,23.48,15.34,11.88,30.62,23.85,46.07,35.59,7.4,5.62,15.17,10.76,22.71,16.21,10,7.23,19.79,14.7,29.86,21.79,6.38,4.49,13.3,8.23,19.57,12.86,2.65,2,4.43,5.21,6.33,8.05,1.41,2.11,7.38,4.43,9.23,2.61C435.24,422.25,436.68,418.53,435.88,417.34Z"/><path d="M165.48,546.92l2.21-17.36-1.85-.37a21.57,21.57,0,0,1-1.7,3.24c-.78,1-2.12,2.78-2.72,2.6-1.55-.48-3.57-1.56-4.09-2.91-1.9-4.89,2-11.78,6.92-13.55a12.06,12.06,0,0,0,8.09-8.76,186.71,186.71,0,0,1,27-58.56c8.64-12.48,18.49-23.47,30.57-32.56,10.94-8.24,23.32-13.18,36.87-12.74,7,.23,13.9,4,20.84,6.16,1,.32,2,.73,4,1.47l-4-4.45a5.43,5.43,0,0,1,6.7-2.16c6,2,12.05,4.11,18,6.39,7.09,2.73,14.06,5.78,21.14,8.56,8.56,3.37,17.1,6.83,25.8,9.81,4.55,1.56,9.5,1.93,14.15,3.27,3.58,1,6.85,3.23,10.46,4,3.28.71,7.31,1.3,10.18,0a126.16,126.16,0,0,1,31.58-8.91c4.28-.66,8.89-1.53,12.95-.59,3,.69,5.31,4.19,8.94,7.31-9.06.53-16.67.25-24,1.6-7,1.29-13.78,4.26-20.87,7.52,30.21,13.29,55,31.85,69.08,63.27,2.23-2.18,3.81-3.91,5.57-5.43,3.47-3,7-5.94,10.57-8.78,4.27-3.38,8.38-7.07,13-9.85a185,185,0,0,1,19.18-9.75c1.61-.73,4.85-.61,5.72.45a7.43,7.43,0,0,1,1.11,6.35,119.36,119.36,0,0,1-8.49,17c-4.17,6.78-9,13.18-13.58,19.67s-9.25,12.67-13.88,19c-1.85,2.54-3.63,5.13-5.54,7.62-2.91,3.79-5.92,7.52-9.21,11.69l7.58,2.91c-7.7.74-8.65,2.26-10.69,11.59-4.2,19.25-9.92,38.05-20.13,55.07-5.9,9.83-11.88,19.76-19.09,28.61s-15.84,17.12-24.5,24.89a133.33,133.33,0,0,1-48.59,28c-7.57,2.43-15.14,5.46-22.93,6.5-18.45,2.46-36.93,4.25-55.68,1.71-13-1.76-25.57-4.52-37.64-9.58-1.93-.81-3.58-2.26-5.47-3.21-2.28-1.15-4.79-1.87-7-3.14a149.53,149.53,0,0,1-14.81-9.2,128,128,0,0,1-15.72-13.55c-4.33-4.51-7.14-10.52-11.65-14.79-8.67-8.21-10.62-19.74-15.84-29.62-2.67-5.05-5.34-11-5.19-16.43.21-7.52-4.71-10.66-8.94-14.26-19.26-16.41-39-32.25-58.21-48.73-8.63-7.4-16.65-15.58-22.17-25.79-2-3.67-1.81-7.34.62-10.47,1-1.27,4-2.43,5.09-1.84a18.93,18.93,0,0,1,5.9,5.61c2.56,3.43,4.65,7.2,7.06,10.74,1.52,2.23,2.94,4.67,4.94,6.4,10.53,9.13,21.35,17.93,31.85,27.09,9.89,8.63,19.51,17.58,29.61,26.72-.48-8-.94-15.39-1.35-22.74a32.69,32.69,0,0,1-.06-5.49c.85-7.44.85-7.3-6.1-9.57-6.28-2.05-12.74-3.89-18.61-6.83-8-4-15.51-8.9-23.12-13.58a40.86,40.86,0,0,1-7.3-5.76c-1-.94-1.82-3.43-1.29-4.13a16.1,16.1,0,0,1,5.85-5.21c6.47-2.84,11,3.09,12.6,6.46,3.5,7.34,10,9.15,15.94,12C148.71,541.18,156.76,543.64,165.48,546.92Zm292.7,26.53c2-4.72,4.63-8.79,5.25-13.15A197.09,197.09,0,0,0,465.07,535c.25-20.4-9.48-36.67-23-50.64-12.93-13.34-29.13-22.17-46-29.64-3.06-1.35-6.56-3.41-9.51-2.93-5.32.85-10.42,3.26-15.53,5.22-11,4.2-21.89,8.67-32.93,12.74s-22.12,7.57-33.07,11.63c-8.78,3.26-17.26,7.34-26.1,10.4-10.93,3.78-22.12,6.78-33.14,10.3-10,3.2-19.94,6.76-30,9.93-9.84,3.1-19.79,5.85-29.65,8.86-4.21,1.28-7.29,3.56-7.72,8.58s-1.59,10-2.22,15c-.75,6,0,6.84,6.06,7.83,1.27.21,2.5.64,3.75,1,9.37,2.35,18.76,4.63,28.11,7.06,10,2.59,20,5.1,29.85,8.11,5,1.54,5.86,6.43,2.31,10.78-6.71-6.5-15.76-6.48-24.06-8.36-10.18-2.31-20.54-3.79-30.77-5.87-5.32-1.08-10.53-2.69-16.31-4.2.16,2.55.23,4.11.36,5.68.87,10.08,1.72,20.16,2.64,30.24.25,2.69-.2,6.14,1.27,7.91,7,8.42,14.95,15.7,26.54,17.45,1.81,6.11.1,8.35-6.21,7.07-5.15-1-10.14-2.89-15.36-4.43a4,4,0,0,0,.13,1.33c6.61,13.78,13.69,27.07,24.1,38.71,11.4,12.75,25.1,21.59,40.28,28.52,14.59,6.66,29.78,11.33,46.06,11.49,10.66.1,21.35.92,32,.4,10.19-.5,20.16-2.23,29.44-7.61,7.44-4.32,16.26-6.23,23.75-10.47a138.5,138.5,0,0,0,23.8-16.67,195.8,195.8,0,0,0,22.2-23.8c6.52-8.11,12.76-16.68,17.58-25.86,5.24-10,9-20.76,12.79-31.41C458.34,584,462.72,578.46,458.18,573.45ZM292.71,412.52l-.79,1.15c4.43,3.2,9,6.27,13.23,9.68,1.27,1,1.78,3,2.64,4.53-1.8,0-3.88.61-5.32-.1-2.72-1.33-4.85-4-7.64-5-8.36-3.06-16.37-7.9-25.73-6.94-7.12.73-14.47,1.22-21.18,3.44-5.54,1.82-10.55,5.68-15.36,9.22-10.95,8.06-19.47,18.41-26.44,30-4.81,8-9.77,16-13.67,24.46s-6.7,17.69-10,26.57l1.27,1.16c64.2-17.22,126.37-40.47,188.46-64l.33-1.67Zm223.62,71.91c-6.18,4.19-12.49,7.66-17.77,12.29-5.49,4.81-11,9.55-16.87,13.87-2.7,2-6,5.27-6.19,8.12-.39,7,.91,14.05,1.54,21.29C484.34,536.17,517.31,490.17,516.33,484.43Z"/><path d="M522.45,894c-17.35-15.37-39-15.5-59.71-19.24L462,876c.73.94,1.28,2.19,2.23,2.77,6,3.61,12.08,7,18,10.62,4,2.45,7.71,5.38,11.71,7.84,22,13.55,44,27.19,66.19,40.44,8.6,5.14,18,8.94,26.61,14.07,6.7,4,12.79,9,19,13.78,4.76,3.61,7.77,8,4.2,15.38-3.93-2.88-7.64-6-11.74-8.52-12.65-7.68-25.43-15.15-38.2-22.61-13.4-7.83-27-15.34-40.26-23.39-17.28-10.48-34.31-21.36-51.46-32-11.06-6.89-22.09-13.84-33.27-20.53a18.64,18.64,0,0,0-7.73-2.42c-7-.61-14.12-.73-21.18-1.1-12.06-.64-24.11-1.45-36.17-2-11.84-.5-23.7-.4-35.52-1.12S311,865,299.22,864c-1.08-.1-2.43.65-3.24.22-2.39-1.29-6.13-2.67-6.48-4.55A5.62,5.62,0,0,1,295,853a134.86,134.86,0,0,1,15,.65c9.51.78,19,1.92,28.51,2.56,12,.81,24,1.2,36.06,1.88,10.81.62,21.6,1.43,32.41,2,1.29.07,2.63-.74,4.27-1.25-2.62-1.6-5.43-2.46-6.8-4.36-1.81-2.53-1-5.41,1.58-7.69,2.68-2.42,5.48-2.63,8.33-.78,5.33,3.46,10.91,6.7,15.68,10.84,5.92,5.13,13.11,5.09,20,6.34,14.23,2.58,28.8,3.86,42.68,7.66,8.51,2.33,17.33,6,23.73,13.12,1.18,1.32,3,2.1,4.13,3.42a36.6,36.6,0,0,1,3.11,4.83Z"/><path d="M258.34,754.3c-2.94,1.09-4.47,2.16-5.94,2.08-1.85-.09-3.65-1.11-5.47-1.73,1.29-1.14,2.52-2.36,3.89-3.41,5.25-4,10.7-7.81,15.76-12.07,3.8-3.2,7-7.08,10.65-10.48,3.28-3.06,5.94.11,7.89,1.84,1,.92.86,4.48-.06,6.11-4.09,7.23-9.44,13.84-12.86,21.34-4.73,10.38-8.08,21.38-12.14,32.08-1.73,4.55-4,8.92-5.57,13.51-4.74,13.55-9.61,27.06-13.8,40.78-3.8,12.43-6.77,25.11-10.11,37.67-3.88,14.58-7.3,29.31-11.92,43.65-1.68,5.22-2.62,10.83-6.21,15.74-2.66,3.64-2.32,9.35-3.91,13.94-2.91,8.42-6.18,16.72-9.46,25a95.33,95.33,0,0,1-5,10.66,6.6,6.6,0,0,1-3.37,2.41c-3.27,1.25-7.24,1.35-8.47-2-.86-2.38.77-5.89,1.83-8.7,3.91-10.35,8.59-20.43,12-30.95,5.44-17,10.18-34.23,15-51.42,4.16-14.78,7.76-29.73,12.14-44.44,5.55-18.64,11.22-37.26,17.62-55.62,4.62-13.25,10.57-26,15.83-39.07A53.6,53.6,0,0,0,258.34,754.3Z"/><path d="M852.49,1056.64c-1.6-7.18-3.12-14.51-5-21.76-.32-1.27-2.32-2-3-3.31-4.67-9.1-9.16-18.29-13.75-27.42s-9.2-18.38-14-27.47c-3.6-6.84-7.49-13.54-11.3-20.27-5-8.86-10.29-17.57-15-26.59-4.13-8-8.23-16-11.16-24.46-2.44-7-5.92-14-4.36-22.11.78-4,3.55-5.69,6.54-6.68,1-.32,4.4,2.7,4.38,4.16-.22,14.69,6.63,26.82,13.23,39.15,3.82,7.14,7,14.61,10.65,21.86,4,8,8.21,15.91,12.22,23.92,1.48,3,2.53,6.12,4,9.1,5.72,12,11.65,23.9,17.24,36,5.06,10.91,9.87,22,14.63,33C860.37,1049.56,858,1054.31,852.49,1056.64Z"/><path d="M673.68,914c.61,1.16,1.34,1.89,1.27,2.52a98,98,0,0,1-8.93,30c-4.05,8.58-8.8,16.83-12.92,25.39-2.92,6.07-5.23,12.42-8,18.59-4,9.18-8.08,18.35-12.36,27.42a79.47,79.47,0,0,1-5.68,9.29c-1.85,2.83-6.28,3.19-9.66.7-2.41-1.77-4-4-1.58-6.91.62-.75,1.64-1.67,2.47-1.66a6.83,6.83,0,0,0,6.22-4.21c4.12-8.49,7.79-17.21,11.58-25.86,6.23-14.21,10.17-29.41,19.83-42.12,4.35-5.73,7.17-12.64,10.59-19.07C668.94,923.58,671.16,919,673.68,914Z"/><path class="cls-1" d="M779.62,779c-2.34,3.66-2.3,8.52,1,10a9.88,9.88,0,0,0,6.77-.06c3.46-1.27,6.55-3.53,9.94-5,1.53-.69,3.42-.6,6.53-1.08-1.13,3.84-1.47,7-2.93,9.61-4.2,7.39-8,15.23-13.53,21.59-6.79,7.88-12.3,17.06-21.44,22.87-7.56,4.8-14.64,10.38-22.26,15.08-5.41,3.34-11.37,5.77-17.08,8.63a86.31,86.31,0,0,1-32.16,9.08c-13,1-26.13,3.74-39.1,3.21-18.58-.76-36.62-5.26-52.7-15.48a157.48,157.48,0,0,1-40-36c-10-12.74-16.28-27.36-22.82-41.91-1.75-3.9-3.06-8-5-13.12,12.07,3.56,20.6-.23,24.73-11.35,2.36-6.34,4.24-13.2-.12-19.33-2.08,5.76-4.61,11.46-6.16,17.41-1.32,5.06-5.11,6.09-9,6.53-5.86.65-13-4.35-14.4-10.1-5-20.06-8.46-40.33-7.82-61.14.4-13,1.62-25.93,5.36-38.28,3-9.86,7.52-19.33,12.16-28.57a138.22,138.22,0,0,1,13.24-21.22c3.05-4,7.67-6.93,11.74-10.14,2.17-1.71,4.44-1.51,7.11-.2,13.78,6.77,27.51,13.71,41.62,19.74,17.09,7.3,34.34,14.33,51.9,20.41,18.62,6.45,37.69,11.57,56.53,17.4,12.89,4,25.64,8.47,38.59,12.25,12.64,3.68,25.41,7,38.22,10,6.67,1.58,13.54,3.06,16.64,9.67A84.32,84.32,0,0,1,821,698.29c1.25,6.08,1.45,12.39,2,18.61.5,5.88-1.65,7.71-7.59,6.45-7.2-1.52-14.39-3.06-21.54-4.8-4.06-1-6.75,1.09-9,3.78-.56.69.18,3.23,1.1,4.15s2.9,1.46,4.48,1.73c8.61,1.43,17.24,2.72,25.87,4.07,2.88.45,3.95,1,3.19,4.9a180.63,180.63,0,0,1-6.29,24.11c-2.52,7.38-5.46,11.5-13.44,12.34-4.4.46-8.55,3-12.9,4.36C784.75,778.64,782.41,778.66,779.62,779Zm-77.41-25c-8.32-2.16-19.3,2.66-24,10.63a54,54,0,0,0-6.65,17.17,34.24,34.24,0,0,0,4.27,24.59A27.39,27.39,0,0,0,688,817.26a35.88,35.88,0,0,0,22.34,3.35c8.17-1.42,14.74-6,20.51-12.18,7.54-8,10.32-17.57,11.35-28.12a19.51,19.51,0,0,0-5.89-16.48c-3.07-3.08-6.14-6.45-9.87-8.51C721.51,752.6,716,751,710.7,749l-.84,1.85c1.27.62,2.52,1.27,3.8,1.85,3.52,1.56,7.29,2.72,10.55,4.71,5.63,3.44,11.07,7.45,12.64,14.39a33.83,33.83,0,0,1-4.64,25.5c-3.32,5.38-8.13,10.91-13.63,13.61-9,4.43-19,5.73-28.9.54-5.7-3-14.57-14.13-14.51-20.47.08-9.26,1.91-17.94,7.38-25.8,2.73-3.92,6.23-5.88,10.43-7.34C695.72,756.85,698.38,755.63,702.22,754.06ZM583.9,651.59c-.5-1.54-1.81-3.38-1.42-4.75,1.18-4.24-2.67-4.57-4.4-6.53-1.45,1.64-3.88,3.11-4.18,4.93a223.8,223.8,0,0,0-3,24.9c-.61,11.66,4.42,20.44,16.48,23.78,9.13,2.53,15.08,1,21.05-6.38,3.1-3.82,5.66-8.1,8.87-11.82,2.8-3.24,4-5.83-1.41-8.48-4.19,4.44-8.56,9.18-13.06,13.81-3.3,3.39-8.17,6-11.89,3.7-4.41-2.71-9.84-6.15-10.18-12.46a95.71,95.71,0,0,1,.81-15.42C581.75,655,583.1,653.31,583.9,651.59Zm71.69,28.82a1.34,1.34,0,0,1,.42.72,4.34,4.34,0,0,1,.09,2c-1.69,6.64.81,12.63,3.07,18.56,5.13,13.44,23.44,18.08,33.64,8.17,4.37-4.24,7.6-9.74,10.92-14.94,1.75-2.74-1.29-6.7-4.75-7.22-1.79,3.23-3.13,6.65-5.33,9.38-3.53,4.39-7.88,8.34-14,8-7.22-.43-15.15-10.66-14.47-18.11a6.18,6.18,0,0,1,1.84-3.84c2.67-2.25,2.31-6,1.75-7.82-1.8-5.88-7.31-6.85-10.07-1.68-2.39,4.47-5.63,4.36-9.32,4.68-1.11.1-2.23,0-3.35,0l0,.86ZM615,738.67c-5.71-5.86-7.1-12-6.86-18.77.09-2.36-.4-5.18-3.59-4.42-1.38.33-3.4,3-3.15,4.3,1.34,6.94,1,14.35,5.26,20.58,3.16,4.57,7.16,6.9,11.81,4.7,4.08-1.92,7.59-5.35,10.8-8.66.88-.91-.26-3.77-.48-5.74a22.17,22.17,0,0,0-4.21,1.58C621.34,734.21,618.27,736.42,615,738.67Z"/><path class="cls-1" d="M744.81,619.64c4-1.5,7.59,1.82,11.26,4.12,7.76,4.85,15.71,9.53,22.79,15.27,6.86,5.56,12.72,12.35,19,18.66.37.37.21,1.25.4,2.61-3.41-.8-6.51-1.37-9.51-2.25-16.68-4.89-33.33-9.87-50-14.78-17.15-5-34.38-9.8-51.43-15.15-12.71-4-25.27-8.5-37.75-13.17-10.47-3.92-20.91-8-31-12.74-11.61-5.4-22.88-11.54-34.26-17.44a41.32,41.32,0,0,1-4.61-3.3c17.81-14.07,36.93-23.83,59-27.22C649,552.66,659.47,550.6,670,550c21.75-1.17,40.08,7.49,56,21.68A123.66,123.66,0,0,1,737.31,583c5.38,6.2,6.25,13.88,5.7,21.66-.24,3.4-2.83,3.09-5.18,1.8-6-3.3-12-6.71-18-10-10.12-5.53-20.23-11.08-30.44-16.43-2.37-1.24-5.15-1.68-7.75-2.5l-.76,1.27c6.59,4.42,13.11,9,19.81,13.22,5.43,3.46,11,6.67,16.65,9.82,7.11,4,14.4,7.65,21.42,11.8C741,615,742.61,617.41,744.81,619.64Z"/><path class="cls-1" d="M756.45,404.35c-.88-6.29,4.7-8.63,7.43-12.18,3.08-4,7.42-7.07,11.48-10.2.9-.69,3.18-.36,4.42.28,9.67,5,18.32,11.39,24.63,20.29,1.9,2.68,3,7.12,2.21,10.2-.7,2.8-4.15,5.21-6.86,7.15-6.3,4.51-9.71,4-16.16-.38-1.56-1.06-5.48-1.11-6.56,0-3.14,3.34-6.23,1.84-8.59.21a57.06,57.06,0,0,1-10.16-9.37C757,408.95,757,406.39,756.45,404.35Z"/><path class="cls-1" d="M891.59,740.53c-9.39,4.5-17.45,8.9-25.92,12.29C855,757.07,844,760.48,833.2,764.25c-2.14.74-4.28,1.5-6.46,2.08-.82.22-2.17.28-2.56-.18a3.53,3.53,0,0,1-.48-2.8c1.73-6.36,3.79-12.64,5.38-19,2.13-8.52,5.09-10.66,13.73-9.65q16.41,1.91,32.84,3.54c4.1.4,8.25.36,12.37.64C888.77,738.89,889.48,739.5,891.59,740.53Z"/><path class="cls-1" d="M488.7,834.77c3.8-6.74,7.51-13.48,11.38-20.13,2.4-4.13,4.59-8.51,7.7-12,2.12-2.4,5.69-3.53,8.65-5.25,3.51,4.77,1.6,9.5.15,13.64a295.41,295.41,0,0,1-11.15,27.38c-4.25,9.1-8.54,9.11-14,.62C490.48,837.44,489.46,835.92,488.7,834.77Z"/><path class="cls-1" d="M458.18,573.45c4.54,5,.16,10.56-1.71,15.83-3.79,10.65-7.56,21.45-12.79,31.41-4.82,9.18-11.06,17.75-17.58,25.86a195.8,195.8,0,0,1-22.2,23.8A138.5,138.5,0,0,1,380.1,687c-7.49,4.24-16.31,6.16-23.75,10.47-9.28,5.39-19.24,7.11-29.44,7.61-10.63.52-21.32-.3-32-.4-16.28-.16-31.47-4.83-46.06-11.49C233.7,686.29,220,677.45,208.6,664.7c-10.41-11.64-17.49-24.93-24.1-38.71a4,4,0,0,1-.13-1.33c5.22,1.54,10.21,3.39,15.36,4.43,6.31,1.28,8-1,6.21-7.07-11.59-1.75-19.56-9-26.54-17.45-1.47-1.77-1-5.22-1.27-7.91-.92-10.08-1.77-20.16-2.64-30.24-.13-1.56-.2-3.13-.36-5.68,5.78,1.51,11,3.12,16.31,4.2,10.23,2.08,20.59,3.56,30.77,5.87,8.29,1.88,17.35,1.87,24.06,8.36,3.55-4.35,2.73-9.25-2.31-10.78-9.86-3-19.87-5.51-29.85-8.11-9.35-2.43-18.74-4.71-28.11-7.06-1.25-.31-2.48-.75-3.75-1-6-1-6.81-1.83-6.06-7.83.63-5,1.79-10,2.22-15s3.51-7.29,7.72-8.58c9.87-3,19.82-5.76,29.65-8.86,10-3.16,19.95-6.73,30-9.93,11-3.51,22.21-6.52,33.14-10.3,8.84-3.06,17.32-7.14,26.1-10.4,11-4.06,22.11-7.59,33.07-11.63S360,461.21,371,457c5.12-2,10.21-4.36,15.53-5.22,2.95-.47,6.45,1.58,9.51,2.93,16.89,7.47,33.1,16.3,46,29.64,13.54,14,23.27,30.24,23,50.64a197.09,197.09,0,0,1-1.64,25.28C462.81,564.66,460.14,568.73,458.18,573.45ZM267.47,599.77c1.6-1.24,2.85-2.65,4.42-3.34,4.79-2.1,9.75-3.83,14.55-5.89,4.6-2,8.65-4.92,14.26-4.57,6.6.41,13.27-.53,19.92-.66,8.6-.17,14.14,5.14,18.54,11.51,5.86,8.5,3,19.25-2.22,27a22.41,22.41,0,0,1-6.43,6.5c-7,4.31-13.76,7.33-22.87,7.68-18.95.73-34.36-5.81-48.62-16.88-2.26-1.76-3.51-4.39.77-6.11,1.75-.7,3.12-2.38,5.63-4.4-2.81-.66-4.56-1.68-5.61-1.19-2.7,1.25-5.71,2.68-7.46,4.93-2.07,2.65.08,5.29,2.41,7,7,5,13.68,10.66,21.24,14.61,6.79,3.55,14.49,5.45,21.93,7.62,12.76,3.72,24.43-.91,34.43-7.62,7.52-5,12-13.6,13.18-23.42,1.62-13.42-6.36-27.61-18.36-30.05-10.1-2.06-20.41-2.23-30.51.61-5.7,1.6-11.32,3.48-17,5.18-3.56,1.07-7.32,1.64-10.67,3.15C264.35,593.5,264.22,595.62,267.47,599.77Zm73.67-60.28c1.14-15.8-6.86-16.9-17.54-14-1.48.41-2.68,2-4.16,2.29-6.27,1.31-10.88,5.57-11.13,11.17-.19,4.21,3.18,9.2,6.23,12.76a11.68,11.68,0,0,0,13.57,2.7C334.3,551.55,341.69,548.67,341.14,539.49Zm50.56,17c-1.92,7.95-7.57,13.22-13.48,18-5.22,4.25-11.68,2.63-15.63-3.26-1.89-2.81-3.41-5.88-5.47-8.54-1-1.25-2.91-2.52-4.29-2.4-1,.09-2.61,2.49-2.55,3.8.26,5.72.65,11,5.44,15.83,6,6,12.4,7.49,20,6,9.41-1.79,18.55-16,20.26-23.58C396.63,559.58,397.21,555.46,391.7,556.44Zm31.37-31.34a58.92,58.92,0,0,0-4-6.93c-4.6-6-13.78-7.73-20.06-3.73a9,9,0,0,0-3.17,4.87c-.71,2.44-.2,5.27-1,7.64-2.2,6.17-1.55,8.41,4.21,11.27.87.43,1.79.77,2.69,1.16C410.8,543.33,422.27,535.64,423.07,525.1Zm21.8,37.18c-3.65-1-3.55-.8-11.94,3.57-15.9,8.29-17.23,17.35-16.69,32.35a7.42,7.42,0,0,0,2.25,4.69c4.78,4.35,16.19,5.88,21,2,6.4-5.2,10.11-12.65,13.32-20.18.22-.52-1-1.68-1.07-1.72-4.42,4.48-8.36,9.2-13.05,13-2.93,2.36-6.79,4.29-11,2.41s-4.57-5.89-5.25-9.92c-1.4-8.34,4.38-12.73,9.37-17.24C435.62,567.7,440.45,565.22,444.87,562.28Z"/><path class="cls-1" d="M516.33,484.43c1,5.74-32,51.74-39.29,55.58-.63-7.24-1.93-14.31-1.54-21.29.16-2.85,3.49-6.14,6.19-8.12,5.9-4.32,11.37-9.06,16.87-13.87C503.84,492.09,510.15,488.63,516.33,484.43Z"/><path d="M702.22,754.06c-3.84,1.57-6.5,2.78-9.25,3.74-4.2,1.46-7.7,3.42-10.43,7.34-5.46,7.86-7.29,16.54-7.38,25.8-.06,6.34,8.81,17.49,14.51,20.47,9.94,5.19,19.88,3.9,28.9-.54,5.5-2.7,10.32-8.23,13.63-13.61a33.83,33.83,0,0,0,4.64-25.5c-1.57-6.94-7-10.95-12.64-14.39-3.26-2-7-3.15-10.55-4.71-1.29-.57-2.54-1.23-3.8-1.85l.84-1.85c5.27,2.06,10.81,3.63,15.72,6.35,3.72,2.06,6.8,5.43,9.87,8.51a19.51,19.51,0,0,1,5.89,16.48c-1,10.55-3.81,20.1-11.35,28.12-5.77,6.14-12.34,10.75-20.51,12.18A35.88,35.88,0,0,1,688,817.26a27.39,27.39,0,0,1-12.12-10.81,34.24,34.24,0,0,1-4.27-24.59,54,54,0,0,1,6.65-17.17C682.92,756.72,693.9,751.9,702.22,754.06Z"/><path d="M583.9,651.59c-.8,1.71-2.15,3.44-2.35,5.29a95.71,95.71,0,0,0-.81,15.42c.33,6.31,5.77,9.75,10.18,12.46,3.73,2.29,8.59-.31,11.89-3.7,4.5-4.63,8.88-9.37,13.06-13.81,5.4,2.65,4.21,5.24,1.41,8.48-3.21,3.72-5.77,8-8.87,11.82-6,7.36-11.93,8.91-21.05,6.38-12.05-3.34-17.09-12.12-16.48-23.78a223.8,223.8,0,0,1,3-24.9c.3-1.83,2.73-3.3,4.18-4.93,1.73,2,5.58,2.29,4.4,6.53C582.09,648.21,583.39,650.05,583.9,651.59Z"/><path d="M655.59,680.41,646,679.12l0-.86c1.12,0,2.24.08,3.35,0,3.69-.32,6.94-.2,9.32-4.68,2.76-5.17,8.27-4.2,10.07,1.68.56,1.84.92,5.57-1.75,7.82a6.18,6.18,0,0,0-1.84,3.84c-.68,7.45,7.25,17.68,14.47,18.11,6.08.36,10.43-3.58,14-8,2.19-2.73,3.53-6.14,5.33-9.38,3.46.52,6.51,4.48,4.75,7.22-3.32,5.2-6.55,10.7-10.92,14.94-10.2,9.91-28.51,5.27-33.64-8.17-2.26-5.93-4.76-11.92-3.07-18.56a4.34,4.34,0,0,0-.09-2A1.34,1.34,0,0,0,655.59,680.41Z"/><path d="M615,738.67c3.32-2.25,6.38-4.45,9.59-6.44a22.17,22.17,0,0,1,4.21-1.58c.21,2,1.36,4.83.48,5.74-3.2,3.31-6.71,6.73-10.8,8.66-4.65,2.19-8.65-.14-11.81-4.7-4.31-6.22-3.92-13.64-5.26-20.58-.24-1.25,1.77-4,3.15-4.3,3.19-.76,3.67,2.06,3.59,4.42C607.85,726.67,609.25,732.81,615,738.67Z"/><path d="M267.47,599.77c-3.26-4.15-3.12-6.27,1.54-8.37,3.35-1.51,7.11-2.08,10.67-3.15,5.67-1.7,11.29-3.58,17-5.18,10.1-2.84,20.41-2.67,30.51-.61,12,2.45,20,16.63,18.36,30.05-1.19,9.82-5.66,18.38-13.18,23.42-10,6.71-21.67,11.34-34.43,7.62-7.44-2.17-15.14-4.07-21.93-7.62-7.56-4-14.26-9.58-21.24-14.61-2.33-1.68-4.48-4.32-2.41-7,1.75-2.24,4.76-3.68,7.46-4.93,1.05-.49,2.8.53,5.61,1.19-2.51,2-3.88,3.69-5.63,4.4-4.29,1.72-3,4.35-.77,6.11,14.26,11.07,29.67,17.61,48.62,16.88,9.11-.35,15.91-3.37,22.87-7.68a22.41,22.41,0,0,0,6.43-6.5c5.24-7.77,8.09-18.52,2.22-27-4.4-6.37-9.94-11.69-18.54-11.51-6.65.13-13.32,1.07-19.92.66-5.61-.35-9.65,2.59-14.26,4.57-4.81,2.07-9.76,3.79-14.55,5.89C270.32,597.11,269.08,598.52,267.47,599.77Z"/><path d="M341.14,539.49c.54,9.18-6.85,12.05-13,15a11.68,11.68,0,0,1-13.57-2.7c-3.05-3.56-6.41-8.55-6.23-12.76.25-5.59,4.85-9.86,11.13-11.17,1.48-.31,2.67-1.88,4.16-2.29C334.28,522.59,342.28,523.69,341.14,539.49Zm-15.29,5.95c5.07-1,7.25-3.35,7.28-9.1,0-4.42-2-6.14-6.16-4.93a26.57,26.57,0,0,0-5.82,2.44,3.59,3.59,0,0,0-.65,6.07C322.18,541.15,323.46,542.92,325.85,545.44Z"/><path d="M391.7,556.44c5.5-1,4.93,3.14,4.3,5.91-1.71,7.63-10.85,21.79-20.26,23.58-7.63,1.45-14,0-20-6-4.8-4.81-5.18-10.11-5.44-15.83-.06-1.31,1.55-3.71,2.55-3.8,1.38-.12,3.32,1.15,4.29,2.4,2.07,2.65,3.59,5.73,5.47,8.54,4,5.89,10.41,7.51,15.63,3.26C384.13,569.67,389.78,564.39,391.7,556.44Z"/><path d="M423.07,525.1c-.8,10.54-12.27,18.23-21.4,14.28-.9-.39-1.82-.73-2.69-1.16-5.76-2.87-6.41-5.1-4.21-11.27.85-2.37.33-5.2,1-7.64a9,9,0,0,1,3.17-4.87c6.27-4,15.46-2.23,20.06,3.73A58.92,58.92,0,0,1,423.07,525.1Zm-15.5-5.16-1.7.21c-.88,1.92-2.55,3.89-2.42,5.74s2.07,3.57,3.21,5.34c1.82-1.48,5.31-3.22,5.13-4.38C411.39,524.39,409.09,522.22,407.57,519.94Z"/><path d="M444.87,562.28c-4.41,2.94-9.25,5.43-13.14,8.95-5,4.51-10.77,8.9-9.37,17.24.68,4,.88,8,5.25,9.92s8.12-.05,11-2.41c4.69-3.78,8.63-8.49,13.05-13,0,0,1.29,1.19,1.07,1.72-3.21,7.53-6.92,15-13.32,20.18-4.77,3.88-16.19,2.35-21-2a7.42,7.42,0,0,1-2.25-4.69c-.54-15,.79-24.06,16.69-32.35C441.32,561.48,441.22,561.28,444.87,562.28Z"/><path class="cls-1" d="M325.85,545.44c-2.39-2.52-3.67-4.29-5.35-5.52a3.59,3.59,0,0,1,.65-6.07,26.57,26.57,0,0,1,5.82-2.44c4.13-1.21,6.19.52,6.16,4.93C333.1,542.09,330.92,544.42,325.85,545.44Z"/><path class="cls-1" d="M407.57,519.94c1.52,2.29,3.82,4.45,4.22,6.92.19,1.15-3.3,2.9-5.13,4.38-1.14-1.78-3.08-3.49-3.21-5.34s1.54-3.82,2.42-5.74Z"/></svg>