<svg id="Layer_1" data-name="Layer 1" xmlns="http://www.w3.org/2000/svg" viewBox="0 0 1019.13 1068.29"><defs><style>.cls-1{fill:#fff;}</style></defs><title>elves_3</title><path d="M541.32,83.72c-7.18,10.08-16.74,19-32.75,18a16.79,16.79,0,0,0,2.77,3.15c9.63,6.61,19.22,13.29,29,19.61,8.93,5.74,18.3,10.81,27.13,16.69,3.73,2.48,6.72,6.16,9.79,9.53,3.54,3.89,6.94,7.92,10.13,12.1,3.33,4.36,5.8,9,2.27,14.58-3.76,5.93-9.42,7.1-15.89,6.79-14.16-.68-24.58-8.71-34.47-17.57C528,156.36,519,144.18,511.49,130.87a30.36,30.36,0,0,0-3.14-3.6c.08,11.33.5,20.78,2.66,30.53,2.85,12.81,7.36,25.64,5.34,39.29-.59,4,.52,8.26.56,12.4.11,13.65-5.51,24.91-15.06,34.26-3.48,3.4-8.29,5.11-13,3.72-2.29-.68-4.63-3.69-5.49-6.15a99.19,99.19,0,0,1-4.89-18.94c-.48-3.44,1.8-7.18,1.89-10.81.07-3.26-1.16-6.56-2-11,.55-2.33,2-6.27,2.26-10.28.24-3.68-.79-7.45-1.38-12.2l2.28-1.59c-2-2.74.41-4,4.67-5.35-13.4-2.27-19.59-10.22-22.38-21.5l-1.48-.36c-1.44,2.82-3.21,5.52-4.26,8.48-3.65,10.25-9,19.49-14.62,28.81-4.39,7.27-9.81,13.07-15.68,18.74-6.16,6-12.83,11.17-22.07,11.22l-4.42-5.72c1.33-2.93,2.61-6.14-3.21-7.81,1.51-3,2.81-5.55,4.13-8.12.07-.14.34-.31.32-.36-3.83-7.84,5.87-10.84,6.14-17.21.07-1.77.83-3.86.13-5.24-1.46-2.9-.35-4.57,1.61-6.42.53-.5.55-1.57.77-2.38.61-2.25,1.28-4.49,1.78-6.77a3.5,3.5,0,0,0-.58-2.75c3.19-8.28,6.25-16.61,9.61-24.82,3.92-9.58,7.66-19.29,14.4-27.39,3.17-3.81,6.17-7.81,9.68-11.28,2-2,4.84-3.21,7.43-4.53,3.88-2,8.67-1.54,11.59-6.27,2.07-3.37,6.46-2.63,10.7,0-3.36-13.35-6.73-25.63-9.5-38-2.67-12-7.31-23.93-5-36.45l2.33-.56c.79,1.59,2.23,3.17,2.27,4.78a93.67,93.67,0,0,0,3.84,24.4c2.88,9.77,4.06,20,6.35,30,1.26,5.51,3.33,10.83,4.94,16.26s2.84,10.77,4.71,16a6.79,6.79,0,0,0,4.15,3.76c8.95,2,12,7.25,11.86,15.09,0,1.57,1.73,3.18,2.67,4.78.41-.29.93-.56.9-.67-1.72-6-3.66-11.89-5.21-17.91-1.61-6.2-2.92-12.47-4.24-18.74-1.72-8.23,3-14.37,7-20.71a44,44,0,0,1,2.85-3.56l-6.88.95c1.39-3.88,3.19-5.44,7-5.23s7.88-.83,11.82-.82C529.24,52.86,541.7,61.05,543,75c.28,3,1.46,5.2,5.18,6,6,1.27,11.7,4.27,17.72,5.08,10.64,1.43,20.7-.82,29.21-8a4.92,4.92,0,0,0,.65-7.48C590,64,582.55,60.67,573.86,59.13c-8-1.42-15.73-4.54-23.72-6.24-11.47-2.44-23.09-4.15-34.59-6.48-1.39-.28-2.4-2.45-3.59-3.74,1.21-1,2.61-2.92,3.61-2.74,7,1.28,13.86,3,20.76,4.6,7.68,1.79,15.37,3.53,23,5.49a114.84,114.84,0,0,1,11.82,3.77c7.72,2.9,15.63,5.47,22.9,9.26,3.07,1.6,5.23,5.7,6.86,9.11,2.3,4.79.26,9.35-3.73,12.6-9.71,7.92-20.76,8.5-32.2,5.93C557.31,89,549.85,86.27,541.32,83.72Zm-72.9,3.6c-2.57.55-4.69,1.65-6.53,1.29a13.05,13.05,0,0,0-14,5.61c-6,8.47-12,17-16.84,26.1-4.23,8-7.16,16.78-10,25.44-2.49,7.56-4.07,15.42-6,23.16-1.29,5.09-2.66,10.16-3.76,15.29A114.6,114.6,0,0,0,408.46,200c-.2,2.82.76,7.8,2.21,8.21,2.69.75,6.52-.45,9.17-2,9.24-5.54,15.7-14,21.71-22.69a110.24,110.24,0,0,0,8.19-13.5,117.69,117.69,0,0,0,6.53-16.11c2.35-7.3,4.21-14.77,6.12-22.2,1.48-5.77,1.57-11.68,4-17.47,3.69-8.65,6.21-17.95,5.53-27.68-.35-5-1.8-5.82-6.77-3.49ZM507.29,153a30.27,30.27,0,0,0-4.26,2.88c-2.62,2.59-5.13,5.3-7.57,8.06-1.6,1.8-4,3.6-4.33,5.67-1.41,8.53-3.85,16.79-4.32,25.62-.62,11.62-1.22,23.21-.57,34.79.23,4.11,1.39,8.73,6,10.76,4.27,1.87,6.35-1.94,9.13-3.84a10.24,10.24,0,0,0,1.64-1.56c9.86-10.69,10.75-24,9.84-37.31C511.86,183.35,509.31,168.75,507.29,153Zm2.58-43.9-1,1.56a40.43,40.43,0,0,1,3,5.51c4.53,12.62,11.91,23.57,20.52,33.58,5.48,6.37,12.3,11.58,18.42,17.41,8.1,7.72,18,10.68,28.86,10.95a5.83,5.83,0,0,0,2.93-.52c4.33-2.51,4.58-5.23.68-10.9-8-11.62-18.4-20.86-29.78-28.95s-23.12-15.78-34.76-23.55C515.91,112.28,512.83,110.77,509.87,109.09ZM474.5,156.79,485.7,158l-4.82-4.19c7.35.27,4.77-5.8,7.25-8.45.82-.87,2.23-1.18,3.37-1.74.43,1.22,1.18,2.42,1.22,3.65.16,4,.06,8.07.06,12.11l1.69.71c2.18-3.22,4.19-6.56,6.57-9.62,3.48-4.5,1.91-9.11-1.35-11.86-7.36-6.2-9.79-14.65-13-23-.84-2.19-3.54-3.88-5.71-5.31-3.06-2-5.41.39-6.49,2.58-1.91,3.88-2.93,8.18-4.37,12.3C466.11,136.69,467.65,147.33,474.5,156.79Zm42-97.08,21.24,17.07c.36-7.87-2.33-12.36-9.13-17.12-7-4.94-11.37-5.73-16.93-.79a28.23,28.23,0,0,0-9.92,21.66c.07,7,7.51,14.15,14.34,14.74,8.7.75,18.64-4.87,20.44-11.62,1.15-4.32-2.89-5.5-5-7.59-3.84-3.76-8.25-6.94-12.18-10.62C518.09,64.32,517.7,62.33,516.45,59.71Zm-39.16,25c-2,6.64-3,13.12-1.89,19.93,5.89-1.67,7.2-4.95,5.52-9.69Q479.12,89.81,477.29,84.69Zm16.21,29.87c-2.06,4.37,1.43,10.12,6.92,11.84Z"/><path class="cls-1" d="M468.43,87.32,465.18,83c5-2.34,6.42-1.51,6.77,3.49.68,9.73-1.84,19-5.53,27.68-2.47,5.79-2.56,11.69-4,17.47-1.91,7.44-3.77,14.9-6.12,22.2A117.69,117.69,0,0,1,449.73,170a110.24,110.24,0,0,1-8.19,13.5c-6,8.72-12.47,17.15-21.71,22.69-2.64,1.58-6.48,2.79-9.17,2-1.45-.41-2.41-5.39-2.21-8.21a114.6,114.6,0,0,1,2.75-15.78c1.1-5.13,2.48-10.2,3.76-15.29,2-7.74,3.55-15.6,6-23.16,2.85-8.65,5.78-17.42,10-25.44,4.82-9.13,10.89-17.63,16.84-26.1a13.05,13.05,0,0,1,14-5.61C463.74,89,465.86,87.87,468.43,87.32Z"/><path class="cls-1" d="M507.29,153c2,15.77,4.57,30.37,5.58,45.08.91,13.27,0,26.62-9.84,37.31a10.24,10.24,0,0,1-1.64,1.56c-2.78,1.91-4.86,5.71-9.13,3.84-4.63-2-5.8-6.65-6-10.76-.64-11.58,0-23.18.57-34.79.47-8.83,2.91-17.09,4.32-25.62.34-2.08,2.74-3.88,4.33-5.67,2.45-2.76,5-5.47,7.57-8.06A30.27,30.27,0,0,1,507.29,153Z"/><path class="cls-1" d="M509.87,109.09c3,1.68,6,3.19,8.87,5.08,11.64,7.77,23.36,15.44,34.76,23.55s21.79,17.33,29.78,28.95c3.9,5.67,3.65,8.4-.68,10.9a5.83,5.83,0,0,1-2.93.52c-10.89-.26-20.76-3.23-28.86-10.95-6.12-5.83-12.93-11-18.42-17.41-8.62-10-16-21-20.52-33.58a40.43,40.43,0,0,0-3-5.51Z"/><path class="cls-1" d="M474.5,156.79c-6.84-9.46-8.39-20.11-4.37-31.6,1.44-4.11,2.46-8.42,4.37-12.3,1.08-2.19,3.43-4.6,6.49-2.58,2.17,1.43,4.86,3.12,5.71,5.31,3.21,8.33,5.63,16.78,13,23,3.26,2.74,4.83,7.35,1.35,11.86-2.37,3.07-4.39,6.41-6.57,9.62l-1.69-.71c0-4,.1-8.08-.06-12.11,0-1.23-.8-2.43-1.22-3.65-1.14.57-2.55.87-3.37,1.74-2.49,2.65.09,8.71-7.25,8.45L485.7,158Z"/><path class="cls-1" d="M516.45,59.71c1.25,2.62,1.64,4.61,2.84,5.73,3.93,3.68,8.34,6.86,12.18,10.62,2.13,2.09,6.17,3.27,5,7.59C534.69,90.4,524.74,96,516,95.27c-6.83-.59-14.27-7.77-14.34-14.74a28.23,28.23,0,0,1,9.92-21.66c5.56-4.94,9.89-4.14,16.93.79,6.8,4.76,9.5,9.25,9.13,17.12Z"/><path class="cls-1" d="M477.29,84.69q1.82,5.12,3.64,10.24c1.67,4.74.37,8-5.52,9.69C474.26,97.81,475.29,91.33,477.29,84.69Z"/><path class="cls-1" d="M493.49,114.56l6.92,11.84C494.92,124.69,491.43,118.93,493.49,114.56Z"/><path d="M310.55,1044.58a111.75,111.75,0,0,1-6-29.31c-1.09-13.32-2.87-26.57-4.27-39.86-1.1-10.46-2.28-20.92-3-31.41s-1.12-20.89-1.55-31.34c-.16-3.9,0-7.81,0-12.59l1.32,1a102,102,0,0,1-1.76-14.95c0-1.17-.05-2.34,0-3.49a6.67,6.67,0,0,1-.38-1.75c-.45-7.23,0-14.52-.46-21.75-1-15.6-2.49-31.18-3.67-46.77-1.56-20.73-2.77-41.49-10-61.32-1.4-3.87-4-3.54-7-2.82-3.71.9-3.66,4.45-2.52,6.3,6.58,10.65,7.79,22.77,9.06,34.57,2.43,22.62,3.75,45.37,5.28,68.08.46,6.8.07,13.66.07,20.53l-1-.66a102,102,0,0,1,1.74,14.83c0,1,0,2,0,2.93a10.45,10.45,0,0,1,.76,3.8c.3,13.69.72,27.39,1.54,41.06.88,14.69,2,29.37,3.5,44q2.18,20.82,5.55,41.5c1.34,8.19,2.82,16.55,8.8,24.23C308.13,1047.59,310.89,1045.52,310.55,1044.58Z"/><path d="M708.74,220.9a37.28,37.28,0,0,1,26.31-1.62c3.09.89,5.75,4,4.07,8.78a45,45,0,0,1-9.7,15.64c-4.58,5-4,14.89,1.59,18.66,3.66,2.48,5.11,5.66,6.51,9.19,3.43,8.66,7.15,17.25,9.82,26.15,1.6,5.33-.91,11.76,4.18,16.32.32.29,0,1.28,0,1.95,0,4.3-1.07,9.06.42,12.79a74.67,74.67,0,0,1,3.83,15.13c.35,2,2.12,3.66,2.91,5.61.61,1.52,1.49,3.68.87,4.8-2.52,4.56-.66,8.81,0,13.26.93,6.38,1.31,12.84,2.07,19.25.54,4.56,1.17,9.12,2.11,13.61.25,1.2,1.82,2.12,2.57,2.93-.31.65-1.23,1.65-1.06,2.38,1,4.3,2.44,8.51,3.48,12.81a46.35,46.35,0,0,1,.92,7c.33,3.9.14,7.61,2.91,11.25,1.67,2.2.87,6.29,1.23,10.08,5.36,1,10.77,1.73,16,3,7.24,1.75,14.42,3.78,21.53,6a7.36,7.36,0,0,1,4,3.5c1.61,3.33,3.18,3.23,6.5,2,11-4.19,22.31-7.77,33.53-11.47,1.58-.52,3.37-.38,5.37-.58-1.38,11.21-5.1,21-12.89,29-8.42,8.7-16.59,17.67-25.25,26.13a69.43,69.43,0,0,1-12.52,9.13c-6.57,4-7.06,5-6.52,12.14.27,3.58-.59,7.24-.85,10.87-.87,12.1-5.43,23.13-10.24,34-1.64,3.7-4.52,6.87-6.9,10.23-5,7-9.71,14.26-15.11,20.94-8.77,10.83-19.63,19.48-30.95,27.5-2.34,1.66-2.54,2.6-1.13,5.22,3.88,7.25,6.59,15.17,10.84,22.17a184.33,184.33,0,0,1,17.23,38.71c3.13,9.57,5.62,19.35,8.48,29,3.26,11,7.16,21.87,9.83,33,4.19,17.48,7.46,35.19,11.37,52.74,2.23,10,5.08,19.86,7.44,29.83,2.49,10.52,4.58,21.15,7.14,31.66,3,12.54,6.45,25,9.61,37.51,5.4,21.4,10.85,42.78,16.05,64.23,2.16,8.89,3.81,17.91,5.51,26.9.2,1-.73,2.29-1.13,3.44-1.28-1.1-3.84-2.8-3.65-3.19,2.77-5.81-2.15-10-3.17-14.86-1.64-7.9-5-15.44-7.23-23.24-3.12-10.92-6.08-21.88-8.69-32.93-1.87-7.94-2.7-16.13-4.63-24.06-2-8.27-5-16.3-7.15-24.52-3-11.21-5.78-22.49-8.49-33.78-3.19-13.27-6.37-26.54-9.23-39.88-1.95-9.06-3.08-18.29-5.06-27.34-1.68-7.67-3.91-15.23-6.12-22.77-6.19-21.07-11.69-42.38-19-63.05-6-17-13.18-33.7-24.16-48.39-1.89-2.54-2.74-5.86-4.28-9.29-4.2,2-8.31,3.91-12.29,6-15.11,7.92-30.8,14.17-47.92,15.84-7.91.77-15.9.8-23.86.94-9.09.16-18.21.44-27.27-.05-5.77-.31-11.51-1.77-17.19-3-5.23-1.17-10.32-3-15.55-4.12-2.67-.59-4.4-.51-4.51,3.83-.21,8.64-2,17.23-3,25.86-.37,3.35.21,6.83-.33,10.14-1,6.11-2.42,12.15-3.84,18.18-.76,3.21.59,4.72,3.55,4.79,6.12.14,12.25,0,18.37.12,1.52,0,3,.81,4.51,1.24-1.58,6.63-3.76,8.57-9.61,8.2-4.66-.29-9.31-1.61-13.92-1.4-8.59.38-16.49-3.56-25.06-3.2-8.4.35-16.83.26-25.24,0-8.71-.26-17.4-1.06-26.11-1.43-13.71-.58-27.44-1-41.16-1.5-7.09-.26-14.18-.7-21.27-.77-11.13-.11-22.5,2.71-29.38,7.11,3.16,2.49,9.91,1.43,8.39,8.67-5.33-.39-10,.41-14.52,4.51-3.46,3.11-9.29,3.85-14.22,5-4.35,1-6.72-1.9-4.67-5.81,1.77-3.37,4.05-6.87,7-9.13,6.11-4.66,13.47-7.8,19.13-12.9,9.18-8.27,19.68-5.12,29.83-5,8.92.07,17.84.94,26.76,1.34,14.47.65,28.94,1.36,43.41,1.74,12.25.32,24.51,0,36.75.35a148.21,148.21,0,0,1,17.66,1.86c4.36.65,6-.53,6.25-5q1.42-23.39,3-46.78a14.28,14.28,0,0,1,.59-2.36c2.13-8.68.59-11-7.42-15-5.65-2.8-10.8-6.66-16-10.23-4.94-3.37-10.57-6.26-14.39-10.66a361.65,361.65,0,0,1-25.63-32.6,181.49,181.49,0,0,1-23.94-50.78c-4.48-15-8.43-30.39-7.08-46.29,1.1-13,5.87-24.93,12.37-36.18.41-.71,1.4-1.34,1.38-2-.24-13,10.33-17.19,18.59-23.37,1.65-1.24,2.62-3.34,4.15-4.79,4.63-4.43,9.1-9.11,14.17-13,4.8-3.67,10.38-6.32,15.42-9.71,1.59-1.07,2.54-3.09,3.78-4.68-1.49-.65-3-1.2-4.46-2-5.52-3-8.94-2-11.29,4.34-1,2.62-4.7,5.07-7.93,3-3-2-2.5-5.07,0-7.76a16.19,16.19,0,0,0,1.88-3.57c-8.93-5.77-19.67-3.09-29.24-6.17.92-4.55,2.78-6.34,6.88-5.54,8.39,1.65,16.83,3,25.21,4.69,2.78.55,4.32,0,6.46-2.26,7.54-7.91,15.84-15.08,23.48-22.9,5.95-6.09,11.29-12.76,17-19.11,8.32-9.29,16.6-18.63,25.1-27.76,11.51-12.38,22.92-24.87,34.93-36.75,7.23-7.16,15.65-13.09,23.23-19.92a24.31,24.31,0,0,0,6-8.5c2.29-5.52,3.79-11.42,9.59-14.51,1.4-.75,3.09-1,5.77-1.77l-8.43,12,.66,1.27c1.64-.56,3.57-.74,4.88-1.73a66.56,66.56,0,0,1,28.49-12.57l-33,22.08c3,7.53,3.48,6.82,10.75,7.2,9.74.5,18.29-2.82,25.55-7.89,7.66-5.35,13.71-13,20.33-19.82a20.75,20.75,0,0,0,3.47-5.29c2.27-4.56-.28-8.69-5.4-8.59-5.75.11-11.49.61-17.24.82a15.91,15.91,0,0,1-3.53-.66Zm-191.07,372-.14-.14,9.29,14.15,1.25-4a19.57,19.57,0,0,1,2.15,2c6.21,8,13.18,15.27,21.67,20.88,13.53,8.94,27.66,16.13,43.65,20.4a156,156,0,0,0,39.81,5.33c13.28.06,26.63-1.4,39.84-3.07a128,128,0,0,0,23.37-5.76c5.58-1.82,10.76-4.9,16.1-7.45,17.13-8.19,30.83-20.74,44.32-33.81,6.65-6.44,9.73-16.61,19.86-19.45a1.34,1.34,0,0,0,.67-.72c4.37-9.52,8.77-19,13-28.61.29-.65-1.06-2-2.07-3.79,3.17-7.26,4.26-15.93,3.68-25.49L768,537.3c-1.93-5.5-1.47-6.94,1.61-8.44,6.23-3,12.42-6.18,18.62-9.28,3.89-1.95,4.51-5,2.9-8.77-3.18-7.42-6.31-14.87-9.6-22.25-2.1-4.72-5-5.53-10-3.8a64.11,64.11,0,0,1-11.76,2.83c-.88.13-2.79-1.81-2.92-3a4.44,4.44,0,0,1,2.31-3.48c2.67-1.14,5.63-1.54,8.42-2.42,5.19-1.63,5.73-3.34,2.6-7.86-3.77-5.45-7.16-11.24-11.5-16.2-2.7-3.09-5.34-6.92-10.39-7.34a39.65,39.65,0,0,1-8.86-2.3c-4.53-1.49-8.91-4-13.53-4.52a25,25,0,0,1-12.59-4.38c-6.51-4.4-14.36-7.54-22.9-4.33a13.35,13.35,0,0,1-5.2.79c-8.13-.38-16.25-1.43-24.36-1.31-9.91.14-19.76.66-28.63-4.75-1.53-.93-2.32-3-3.6-4.44-2.81-3.13-5.16-7.35-8.69-9-5.27-2.43-9.89.92-13.11,5.27-5.08,6.86-10.87,12.24-19.77,13.82-7.67,1.36-15.85-1.57-20.16-8.92-3.61-6.15-2.3-12.08,2.26-17.46.43-.51-.06-2.72-.3-2.75-5.78-.74-11.62-3.73-17.2,1.17-4.7,4.13-9.91,7.68-14.84,11.55-5.1,4-9.74,8.83-15.32,12-6.71,3.75-7,13.57-15.42,15.25-.58.12-1.25,1.2-1.4,1.92-1.31,6.64-7.59,10.49-8.87,17.58-1.36,7.54-6.19,14.41-7.9,21.93a58.73,58.73,0,0,0,.73,27.6c.8,3.12,1.12,6.37,1.66,9.56l-1.43.23-3.33-18.13-1.87.29a20.7,20.7,0,0,0,0,4.71c2.73,11.39,4.55,23.14,8.68,34,5.39,14.22,12.52,27.8,19.16,41.53C513.06,587.37,515.6,590,517.67,592.87ZM677.23,374.74c7.79,2.34,15.07,5.67,20.86,11.19,10.3,9.81,20.24,20,30.17,30.2,3.6,3.69,6.46,8.11,10.11,11.74s9.06,6.35,12,10.61c3.79,5.49,9.07,5.2,14.27,6.49,3.51.87,3.9-.63,3.45-3.19-.93-5.29-2.23-10.52-3.07-15.82-1.29-8.06-2.23-16.18-3.47-24.25-1.56-10.14-3.28-20.26-4.91-30.39-1-6.43-1.9-12.89-3.07-19.3-1.68-9.24-3.42-18.47-5.41-27.65-1.31-6-3-12-4.73-17.91-.94-3.14-2.59-6.06-3.63-9.18-1.7-5.12-2.65-10.55-4.86-15.43-3.36-7.43-7.61-14.46-11.3-21.75-2.38-4.7-5.38-5.6-9.38-2.39-9.82,7.9-20.94,11.47-33.5,9.67-3.13-.45-6.94-1-9-3-3.63-3.51-6.1-2.55-9.1.22-4.1,3.79-8.43,7.34-12.36,11.29-12,12.06-24.26,23.94-35.78,36.47-16.86,18.32-33.11,37.21-49.77,55.72-6.79,7.54-14,14.73-21.55,22.66,4.35,1,8.18,1.35,11.5,2.83,4.18,1.86,7.33,1.53,11.1-1.16a74.75,74.75,0,0,1,14.37-7.94c7.17-3,14.59-5.47,22-7.88,6.58-2.14,13.18-4.82,20-5.58a133.07,133.07,0,0,1,26.32,0c5.87.52,12.21,1.86,17.2,4.78,7.68,4.48,14.49,10.49,21.42,16.16,1.78,1.46,2.63,4.05,3.91,6.12l-1.19.54a16.78,16.78,0,0,0-2.13-2.26c-4.41-3.24-9.65-5.74-13.18-9.74-9.51-10.77-22.22-14-35.2-14-9.88.06-20.12.33-30,3.94-12.53,4.58-25.16,8.74-36.84,15.29a63.3,63.3,0,0,0-5.69,4.16c4.51,1.81,8.1,3.56,11.87,4.69a218.13,218.13,0,0,0,21.23,5.6c4.5.87,8.92,3.07,14,.12,3.41-2,7.91-1.8,11.46,2.27,2.23,2.55,5.92,3.93,9.14,5.45a35.6,35.6,0,0,0,7.15,2.12c12.28,2.87,24.49,6.16,36.89,8.36,10,1.77,20.18,1.94,30.22,3.33,4.08.57,8,2.33,11.92,3.89,3.22,1.3,6.13,3.45,9.39,4.59,4.3,1.5,8.82,2.39,13.24,3.54l.86-1.6C723.89,415.15,704.64,390.82,677.23,374.74ZM786.92,481l15.61,29.91c8.69-4.31,15.92-10.37,22.88-17.12,9.29-9,18.47-18,24.46-29.67a25.72,25.72,0,0,0,1.41-4.92c-1.83-.11-3.85-.77-5.46-.24-9.44,3.13-18.79,6.52-28.15,9.86-8.38,3-16.77,6-25.09,9.12A38.62,38.62,0,0,0,786.92,481ZM584.24,405.12c-6.9.34-12.41,3.57-12.95,8.63-1.09,10.15,8.49,15.1,16.93,13.85,8-1.18,12.34-7.54,17.91-12.12.61-.5-.06-4.2-.78-4.43C598.39,408.83,591.29,407,584.24,405.12Zm179.36,49c1.4.54,3.17.65,3.87,1.58,3.55,4.64,6.9,9.46,10.18,14.3,2.41,3.55,5,5.66,9.73,3.86,7.87-3,15.92-5.53,23.86-8.35.63-.22,1-1.12,2.05-2.33-2.13-1.09-3.75-2.27-5.56-2.78-4.3-1.2-8.77-1.8-13-3.14-6.66-2.1-13.24-5.16-19.34,2.21-2-2.78-3.21-5.72-5.44-7.21C768.88,451.56,764.42,448.82,763.59,454.11Zm-101.68-28c-.55-.75-1-2-1.66-2.16-5-1.22-9.87-3.13-15.19-1.36a4,4,0,0,1-3.53-1.29c-2.14-3.06-4.79-2.64-8.52-2C641.65,427.32,651.93,425.15,661.91,426.08Z"/><path d="M415.59,423.39c-23.56,4.88-42.88,18.37-63.16,30A217.36,217.36,0,0,1,394.17,469c7.22,3.58,14.08,7.88,21.2,11.68,3.08,1.64,6.78,2.33,9.51,4.38,3.84,2.87,7,6.59,10.5,10,1.23,1.2,2.47,3.6,3.56,3.51,3.43-.26,4.87,1.85,6,4.13,4.08,8.14,13.34,10.93,18.32,18.17,5.88,8.55,12.8,16.46,18,25.4,5.3,9.2,10.23,19,13,29.14,2.1,7.72,1.3,16.5.48,24.67-1.36,13.47-9.76,23.68-17,34.56-9.11,13.62-21.1,24.42-32.49,35.74-8.4,8.34-18.54,14.94-28,22.21-13.75,10.59-29.45,17.65-45.59,23.39a214.5,214.5,0,0,1-34.26,8.61c-10.77,1.92-21.78,1.65-32.81,1.48-18.27-.28-35.16-5.16-51.61-12.2-24.86-10.64-44-27.67-55.17-52.55-3.22-7.19-9.34-7.66-14.93-9.3-15.58-4.56-31.31-8.64-47.05-12.6-11.2-2.81-22.62-4.75-33.75-7.79-7.48-2-14.66-5.21-21.87-8.13-1.32-.54-3.23-2.65-3-3.43.59-1.82,2.06-4.29,3.64-4.69,8.36-2.13,16.8-4.69,25.34-5.25,17.56-1.16,35.21-1.18,52.82-1.6,6.87-.16,13.75,0,20.61-.3a3.52,3.52,0,0,0,2.46-2.4c.14-3.32-.28-6.65-.38-10-.13-4.54.12-9.12-.33-13.63a40.79,40.79,0,0,0-2.5-11.41c-.92-2.24,0-1.61,1.19-2.24.92-.5,1.23-2.12,2.33-4.24-7.68,4-7.55,3.87-13.18-2.18-1-1.06-3.78-1.32-5.37-.81-5.45,1.77-5.38,2-9.72-3.06,2.53-1.52,4.77-3.35,7.34-4.29s2.63-1.52,1.92-4.3c-1.56-6.1-2-12.49-2.78-18.77-.71-5.57-1.42-11.13-1.89-16.72-.66-8-1.13-16-1.62-24-.52-8.51-.68-17.05-1.51-25.53-1.79-18.16-3.53-36.33-6-54.39-1.34-9.61-4.59-19-6.28-28.53-.88-5-3.18-6.59-7.84-8.3-13.34-4.9-21.06-16.08-18.19-30.71.55-2.81,2.54-5.62,4.54-7.83,8.15-9,14.8-20,28.72-21.45,10.69-1.08,21.45-1.82,31.41,2.78,2.94,1.36,5.54,5.35,6.54,8.66a29.51,29.51,0,0,1-1.2,21c-1.42,3.18-.71,5.39,3,7.35,13.15,7,26.16,14.2,38.88,21.91,5.55,3.36,10.25,8.11,15.34,12.24l.85-.87-2.29-4.05c4.26,2.34,7.34,4,10.4,5.73.41.23,1.05.8,1,1-1.75,6.45,4.37,6.77,7.42,9,7.48,5.43,15.36,10.34,23.22,15.23,1.65,1,3.93,1,6.63,1.69.41.57,1.28,3,3,4,12.06,6.75,24.28,13.23,36.48,19.73,2.44,1.3,5.1,2.21,7.5,3.58.89.51,1.31,1.82,1.95,2.77a21.52,21.52,0,0,1-3.57,2.28c-.58.24-1.57-.31-2.29-.66-5.66-2.78-11.34-5.54-16.95-8.42-4.75-2.44-9.66-4.68-14.05-7.65-5.92-4-11.43-8.64-17.11-13-.24-.18-.41-.65-.61-.65-7.42.08-10.61-7.39-17.11-9.46-5.14-1.63-9.62-5.58-14.17-8.81-5.23-3.73-10-8.19-15.4-11.59-3.16-2-7.24-2.47-10.88-3.69-.91-.3-2.32-.64-2.52-1.28-2.2-6.74-10.09-5.93-13.79-10.58-10.83-.55-18-9.63-28.09-11.9-2-.46-5.19-.23-6.48,1-7.58,7.53-15.41,14.35-26.66,15.5a2.55,2.55,0,0,0-1.36.79c1.88,11.47,4.67,22.53,5.17,33.69.31,6.83,3.67,12.72,3.36,19.65-.42,9.32.3,18.74,1.12,28.07.65,7.36,2.23,14.64,3.32,22,.4,2.72.55,5.47.86,8.2s.79,5.67,1,8.51c.12,1.59-.27,3.22-.22,4.82.08,2.58.36,5.16.51,7.74.06,1,0,2.09,0,3.13,0,1.66-4,4.62,1.57,4.82.36,0,.58,5.49.74,8.43.06,1.17-.72,3.11-.26,3.42,3.31,2.25,1.52,5.49,2,8.28.68,3.73,1.86,7.37,2.79,10.89,11.08-3.4,14.93-12.15,18.1-21.3,6.23-18,17.15-32.6,30.82-45.69a50.81,50.81,0,0,1,30.71-14.34c11.79-1.26,23.67-1.9,35.52-2.47,9.27-.44,18.78.8,27.78-.89,6.86-1.29,13.07-6,20.79-9.8-11.73-4.82-22.24-4.13-32.47-2.26s-20.46,3.6-28.75,10.89A20.55,20.55,0,0,1,287.56,451c14.59-3.89,29.36-6.26,44.27-1.13a16.11,16.11,0,0,0,13.55-1.32c13.29-7.19,26.57-14.41,40.16-21a119,119,0,0,1,21.12-7.47c2.71-.73,6,.76,9.06,1.24ZM208.76,660.2a5.34,5.34,0,0,0,.51,2.7c4.59,6.68,8.66,13.89,14.19,19.71,13.63,14.33,30.54,23.87,49.19,30.09,18.85,6.29,38.41,5.61,57.89,4.55,5.22-.28,10.38-1.55,15.57-2.41,5.91-1,12.06-1.32,17.67-3.23,7.23-2.46,13.89-6.59,21-9.32,13.72-5.23,25-14.39,37-22.36,5.49-3.65,10-8.71,15-13.13a214.7,214.7,0,0,0,33.91-37.64c8.42-12.13,14.34-25.23,13.93-40.5-.34-12.66-6.51-23.48-10.73-34.92a43.36,43.36,0,0,0-3.66-6.65c-1.55-2.64-2.89-5.48-4.82-7.82-6.48-7.88-13.17-15.58-19.78-23.36-9-10.53-18.49-20.28-29.92-28.38a172.23,172.23,0,0,0-27.1-16.17c-4.27-2-8.24-4.75-12.66-6.22-8.41-2.81-17.25-4.43-25.5-7.59-4.49-1.72-7.82-.69-11.24,1.34-2.58,1.54-4.54,4.13-7.12,5.64a151.93,151.93,0,0,1-13.73,7c-4.38,2-9,3.53-13.34,5.54a6.13,6.13,0,0,0-2.47,3.15c-4.5,10.77-14.79,14.36-24.27,17-6,1.67-12,2.51-15.69,5-1.11,4.55-1.17,8.18-2.79,10.87-7.16,11.91-19.52,14.86-31.88,17.9-5.6,1.38-11.64-.37-17,3.67-5.7,4.33-12.27,7.49-18.39,11.29-1.37.85-3.24,2-3.52,3.33a102.51,102.51,0,0,0-2.34,16.07c-.47,10.18-.25,20.38-.59,30.57-.29,8.62,3.07,13.19,10.92,12.53,14.43-1.21,28.79-3.14,43.19-4.71a45.11,45.11,0,0,1,5.08,0c-.88,8.38-6.49,9.68-12.46,10.15-12,1-24.05,1.7-36.08,2.57-1.29.09-2.56.43-4,.68,2.92,10.27,5.67,20,8.47,29.62.16.56.71,1.36,1.17,1.42,5,.69,10,1,14.87,2,2.08.39,3.95,1.93,5.91,2.95-1,1.64-1.56,4.23-2.94,4.74C216.78,659,213,659.36,208.76,660.2ZM253,501.33c-2.46-1.73-4.79-2.85-6.31-4.64-.84-1-.57-4.5-.39-4.53a58.92,58.92,0,0,1,9.2-.91c5-.09,9.92,2,15-1.6a153.82,153.82,0,0,1,22.3-13.16c4-1.93,5.61-3.68,4-8a25.67,25.67,0,0,0-5-.55c-11.55.9-23.08,2-34.63,2.91-12.75,1-24.23,5.42-33.21,14.42-7.13,7.15-13.31,15.31-19.43,23.39-2.76,3.65-4.35,8.19-6.57,12.53a30.05,30.05,0,0,0,4.76,1.23c5,.3,10.09,3.63,15.05.65C229.47,516,241,508.77,253,501.33ZM176.19,357.64c-2.18-1.78-2.72-2.49-3.43-2.76-4.76-1.76-9.6-3.32-14.31-5.2-1.27-.51-2.19-1.91-3.27-2.9,1-1.07,2.08-3,3.15-3a42.47,42.47,0,0,1,10.79,1c14.39,3.55,11.6,7,16.15-8.13,0-.16.2-.3.21-.45.6-8.47-1.12-14.66-9.41-17.95-9.74-3.87-19.3-2.51-28.51,0-4.49,1.23-8,6.17-11.83,9.61-1.53,1.39-2.31,4.08-4,4.74-6.39,2.52-8.67,7.68-9,13.67-.42,8.08,3.77,14.35,15.28,20.24a31.29,31.29,0,0,0-.69-5.37c-1.37-4.32-3-8.55-4.46-12.85-.83-2.5-.35-5,2.56-5.21,1.84-.15,5.13.83,5.49,2,2,6.54,3.1,13.34,4.85,20,.93,3.53,5.72,5.75,9,4.11C161.65,365.69,168.37,361.87,176.19,357.64ZM101,619.78l0,1.47,88.59,23c-2-8.73-4-17.43-6.19-26.07-.17-.66-1.89-1.31-2.89-1.32-8.38-.11-16.77-.19-25.16,0-13.22.25-26.43.56-39.64,1.12C110.72,618.18,105.85,619.16,101,619.78Zm154-112.3-22.6,14.7C244.91,521.4,255.87,513.9,255,507.48Zm-51.32,23.86-.15-1.3c-2.18-.4-4.41-1.24-6.52-1-1.09.12-2.23,2-2.85,3.35-.34.74.35,2,.57,3,1.14-.42,2.31-.78,3.41-1.28C200,533.2,201.83,532.25,203.67,531.34Z"/><path d="M662.4,937.81c-23.28-12.12-28.16-15.7-28-18.93-3.95-2.45-7.56-4.06-10.38-6.57-7.57-6.73-14.87-13.77-22.14-20.83-6.49-6.29-12.79-12.79-19.21-19.16-8.57-8.51-17.22-16.94-25.77-25.47q-13.79-13.75-27.45-27.63c-7-7.12-13.59-14.68-20.92-21.43-11.69-10.75-23.88-21-35.77-31.49a88.11,88.11,0,0,1-8.79-8.89c-2.44-2.87-5.41-2.92-8.56-2.47-11.28,1.59-22.81,2.31-33.75,5.21-10.48,2.78-22.15,2.8-31,10.83-1,.89-4.49.19-6-.92-2.2-1.65-.28-2.82,1.22-4.48,6.83-7.54,15.77-9.75,25.21-11.24,13.18-2.08,26.32-4.41,39.48-6.63l.75-1.56c-6-4.45-12.21-8.7-18-13.44-2.31-1.89-7.18-1.83-6.33-6.5.67-3.72,5-5.92,8.71-4.91a3.73,3.73,0,0,1,1.59.7c7.37,7,14.95,13.87,22,21.26,3.41,3.6,7.42,3.3,11.22,3,15.24-1.34,30.45-3.07,45.65-4.84,8.63-1,17.22-2.36,25.82-3.55,14.44-2,28.89-4,43.32-6.05,4.84-.7,9.64-1.72,15.08-2.71,2.77-14.29,14.11-23.74,23.26-34.66,3.5-4.18,7.76-7.79,10.78-12.26,1.75-2.58,3.56-2.18,4.94-1.22a5.35,5.35,0,0,1,1.84,4.59c-1.93,7-4.33,13.83-6.62,20.9l3.7-1.47c2.11-.85,4.14-2.1,6.33-2.49,3.93-.7,8-2.21,11.61,1.37,4,4,6,8.1,4.93,14.44-1.23,7.34-2.57,14.37-6.45,20.75-2.11,3.46-4.27,6.89-6.67,10.76,4.74,2.4,8.89,6.6,15.45,5.3,1.47-.29,4.76,1.7,4.83,2.79.12,1.77-1.3,4.68-2.83,5.34-6.18,2.68-12.63,1.7-19,0a10.16,10.16,0,0,0-1.9-.37,13.52,13.52,0,0,0-2.2.33c1.78,4.58,3.86,8.85,5.09,13.36a190.51,190.51,0,0,1,4.7,21.4c.83,5.47-4.27,9.26-9.68,7.9-7.05-1.76-19.28-13-19.74-22.65-.1-2,.75-4.11,1.48-7.74,2.26,3.05,4.48,4.94,5.25,7.31,2.15,6.64,5.37,12,12.5,14.09a21.66,21.66,0,0,0,2.62.43,18,18,0,0,0,.26-2.95C644,783.55,639,774.27,634.12,765c-.87-1.66-3.36-2.5-4.15-4.17-.93-2-1.87-5-1-6.5,1.69-2.76-.43-7.43,4.24-8.55,1.07-.26,2.47-1.17,3.15-.78,4.28,2.44,6.73-.44,8.68-3.19,5.46-7.71,10.13-15.81,9.59-25.84-.42-7.7-1.38-8.2-8.86-6.66-8.44,1.74-13.75,7-18.33,13.8a60.45,60.45,0,0,1-10.1,11.22c-1.4,1.25-4.27.91-6.48,1.19-.56.07-1.52-.52-1.7-.3-4.58,5.47-10.5,2.5-16,2.75-4.75.22-9.47,1.09-14.2,1.73q-22.67,3.06-45.34,6.17c-9.83,1.33-19.65,2.79-29.51,3.93-10.33,1.19-20.7,2.05-31,3.11a9.55,9.55,0,0,0-2.43,1.09c6.29,5.7,12.56,11,18.38,16.73,15.41,15.2,30.58,30.63,45.93,45.9,6.25,6.22,12.78,12.15,19,18.38,5.85,5.86,11.41,12,17.23,17.91,4.66,4.73,9.54,9.25,14.27,13.91,5.72,5.64,11.27,11.47,17.12,17,9.71,9.16,19.6,18.13,29.43,27.16,3.71,3.41,7.44,6.8,11.22,10.14C649.52,926.58,655.8,932,662.4,937.81Zm-36-233-2-1c-5.95,7.5-12.38,14.7-14.92,24.26L611,729Z"/><path d="M867.74,717.39c2.62,2.61,5.72,4.88,3.05,8.62-2,2.83-6.09,2.4-9.52-.92-3.81-3.68-7.41-7.58-11.08-11.39-7-7.28-14.3-14.33-21-21.92-7.29-8.29-9.92-18.63-9.34-29.33.31-5.76,3.27-11.31,9.57-13.56s10.42,2.2,14.68,5.2c3.21,2.26,5.64,5.75,8.07,9,2,2.7,3.67,2.89,6.17.61,4.18-3.81,8.61-6.86,14.4-8.5,9-2.56,17.4,6.82,18.2,15.58,1.11,12.23-3.84,21.66-10.56,30.75C876.43,706.87,872.07,712,867.74,717.39Zm17.13-41-1-.57a55.29,55.29,0,0,1-1.05-7.62c0-3.29-1.78-4.54-4.58-5.45-7-2.28-17.36,5.1-17.61,12.9a78.93,78.93,0,0,0,.52,10.15c.28,2.81.09,5.46-3.22,5.88-3.85.49-4.52-2.84-4.91-5.5-1.45-10-5.21-19-12.51-26-2.19-2.1-6.18-4.22-8.64-3.59-2.24.57-5.27,5.12-4.92,7.46,1,6.46,2.6,13.18,5.68,18.88,3.2,5.92,8.11,11,12.81,16,3.87,4.09,8.53,7.42,12.8,11.14,2.59,2.25,5.25,1.06,6.87-.71,4.2-4.57,8.52-9.22,11.63-14.52C880.17,689.12,882.24,682.61,884.88,676.43Z"/><path d="M394.32,271.71c11.51-2.23,22.4-4.4,33.3-6.42,8.93-1.66,17.49,3.61,18.47,9.66.63,3.9-.25,7.52-1.86,11.62a62.74,62.74,0,0,1-10.62,17.8,71.38,71.38,0,0,1-11.55,10.77c-6.29,4.73-12.85,9.12-19.57,13.21-4.56,2.78-9.38,5.86-14.46,6.82-4.44.84-5.18,3.31-6.51,6.38-.55,1.27-1.9,3-2.92,3.07a6.74,6.74,0,0,1-4.56-2.1c-3.63-4-7.49-8-10.25-12.61a176.56,176.56,0,0,1-10.62-21c-4.95-11.51-5.32-23.23,1.53-34.14,3.54-5.64,7.49-11.66,12.77-15.32,3.21-2.22,9.76-1.45,14,.12C387.51,261.75,393.1,265.61,394.32,271.71Zm-21.79,50.41c1.22,3.34,2.58,5.84,3,8.48.53,3.47,2.5,3.09,4.49,2.09,7.83-3.93,16-7.45,23.24-12.24a179.63,179.63,0,0,0,24.81-19.16,37.86,37.86,0,0,0,11.25-18.58c1.62-6.77-1.24-12-8.12-11.69a152.12,152.12,0,0,0-25.57,3.51,14.54,14.54,0,0,0-10.9,9.17c-1.17,3.19-1.67,6.71-3.28,9.64-.89,1.62-3.44,2.33-5.24,3.44-.85-1.4-2.35-2.78-2.41-4.21a12.69,12.69,0,0,1,1.36-6.61c3.8-6.59,3.06-12.74-.4-19.2-2.61-4.88-10.47-8-15-4.84-7,4.89-11.06,12.18-13,20.22-2.57,10.45-.26,20.67,3.91,30.36,1.9,4.41,4.73,8.42,7.28,12.85Z"/><path d="M732.68,688.58c2.37,2.4,6.08,3.87,4.11,8-.3.64-3.19.92-4,.28C729.93,694.64,728.26,691.88,732.68,688.58Z"/><path d="M708.6,220.76c-1.8,1.28-3.44,3-5.45,3.74-3.78,1.4-7.76,2.23-11.66,3.29l-.45-1.44,17.69-5.44Z"/><path class="cls-1" d="M517.67,592.87c-2.07-2.86-4.61-5.5-6.12-8.63-6.63-13.73-13.77-27.31-19.16-41.53-4.12-10.88-5.94-22.63-8.68-34a20.7,20.7,0,0,1,0-4.71l1.87-.29,3.33,18.13,1.43-.23c-.54-3.19-.86-6.44-1.66-9.56a58.73,58.73,0,0,1-.73-27.6c1.7-7.53,6.53-14.4,7.9-21.93,1.28-7.09,7.56-10.94,8.87-17.58.14-.73.81-1.81,1.4-1.92,8.45-1.69,8.71-11.5,15.42-15.25,5.59-3.13,10.22-7.95,15.32-12,4.93-3.87,10.13-7.43,14.84-11.55,5.58-4.9,11.42-1.91,17.2-1.17.24,0,.74,2.24.3,2.75-4.56,5.38-5.87,11.3-2.26,17.46,4.31,7.36,12.49,10.28,20.16,8.92,8.91-1.58,14.7-7,19.77-13.82,3.22-4.35,7.85-7.7,13.11-5.27,3.53,1.63,5.88,5.85,8.69,9,1.28,1.42,2.07,3.51,3.6,4.44,8.87,5.41,18.72,4.89,28.63,4.75,8.11-.11,16.24.93,24.36,1.31a13.35,13.35,0,0,0,5.2-.79c8.53-3.21,16.39-.07,22.9,4.33a25,25,0,0,0,12.59,4.38c4.61.48,9,3,13.53,4.52a39.65,39.65,0,0,0,8.86,2.3c5,.41,7.68,4.25,10.39,7.34,4.34,5,7.73,10.75,11.5,16.2,3.13,4.53,2.59,6.23-2.6,7.86-2.79.88-5.76,1.28-8.42,2.42a4.44,4.44,0,0,0-2.31,3.48c.13,1.14,2,3.08,2.92,3a64.11,64.11,0,0,0,11.76-2.83c5-1.73,7.9-.92,10,3.8,3.29,7.37,6.42,14.82,9.6,22.25,1.61,3.76,1,6.82-2.9,8.77-6.2,3.11-12.38,6.24-18.62,9.28-3.08,1.5-3.54,2.94-1.61,8.44l26.09-13.87c.58,9.55-.52,18.22-3.68,25.49,1,1.77,2.35,3.13,2.07,3.79-4.19,9.59-8.59,19.09-13,28.61a1.34,1.34,0,0,1-.67.72c-10.14,2.84-13.22,13-19.86,19.45-13.49,13.07-27.19,25.63-44.32,33.81-5.34,2.55-10.51,5.63-16.1,7.45a128,128,0,0,1-23.37,5.76c-13.21,1.67-26.56,3.13-39.84,3.07a156,156,0,0,1-39.81-5.33c-16-4.28-30.12-11.46-43.65-20.4C543.4,620.23,536.42,613,530.22,605a19.57,19.57,0,0,0-2.15-2l-1.25,4-9.29-14.15,5.44,3.88c-3-5.17-5.58-9.79-8.37-14.28-1.95-3.13-4.2-6.08-6.3-9.12q-3.08-7.7-6.18-15.38L500,558.9l8.44,14.19c.88,2,1.74,4,2.66,5.9C513.25,583.63,515.47,588.25,517.67,592.87ZM549.89,496c7.23.69,15.37-7.49,12.32-12.75-2.93-5.06-6.3-10.17-12.6-11.93-4.62-1.29-9.44-1.93-13.05,1.69-2.89,2.89-3.18,6.86-2,11.08C536.7,492.1,542.24,495.29,549.89,496Zm90.81-13.07,2-3.61c-1.73,0-3-.31-4,.06-2.71,1-5.23,2.51-8,3.41-4.56,1.51-10.34,8.48-10,13.12a12.46,12.46,0,0,0,2.35,6.72c4.92,5.92,12,6.17,18,2.94,7.32-3.9,12.4-12,5.57-18.31A58.87,58.87,0,0,0,640.69,482.91Zm-69.13,33c-5.29,1.43-7.47,4.45-6.92,9.12,1.32,11.29,15.25,17.91,24.61,11.5a34.34,34.34,0,0,0,12-15.1c2.89-6.77,2.6-6.9-.27-9.43-1.12,8.34-6.33,14.1-12.5,18.86-6.93,5.35-17.15.91-18-7.55C570.27,521,571.12,518.7,571.56,515.86Zm-76,31.33,1.45-.4L491,524.12l-1.53.42Z"/><path class="cls-1" d="M786.92,481a38.62,38.62,0,0,1,5.66-3.06c8.32-3.16,16.71-6.12,25.09-9.12,9.36-3.34,18.71-6.73,28.15-9.86,1.62-.54,3.63.13,5.46.24a25.72,25.72,0,0,1-1.41,4.92c-6,11.66-15.17,20.65-24.46,29.67-7,6.75-14.19,12.81-22.88,17.12Z"/><path class="cls-1" d="M584.24,405.12c7.06,1.92,14.15,3.71,21.11,5.93.71.23,1.39,3.93.78,4.43-5.57,4.58-9.93,10.94-17.91,12.12-8.44,1.25-18-3.7-16.93-13.85C571.83,408.69,577.33,405.46,584.24,405.12Z"/><path class="cls-1" d="M763.59,454.11c.82-5.29,5.29-2.56,6.34-1.85,2.23,1.49,3.48,4.43,5.44,7.21,6.09-7.37,12.67-4.31,19.34-2.21,4.25,1.34,8.72,1.94,13,3.14,1.81.5,3.43,1.69,5.56,2.78-1,1.21-1.42,2.11-2.05,2.33-7.94,2.82-16,5.35-23.86,8.35-4.72,1.79-7.32-.31-9.73-3.86-3.29-4.84-6.63-9.65-10.18-14.3C766.76,454.77,765,454.65,763.59,454.11Z"/><path class="cls-1" d="M661.91,426.08c-10-.94-20.26,1.23-28.9-6.78,3.73-.67,6.37-1.09,8.52,2a4,4,0,0,0,3.53,1.29c5.32-1.77,10.22.14,15.19,1.36C660.94,424.09,661.36,425.34,661.91,426.08Z"/><path class="cls-1" d="M208.76,660.2c4.2-.84,8-1.19,11.5-2.49,1.38-.51,2-3.1,2.94-4.74-2-1-3.83-2.56-5.91-2.95-4.9-.92-9.92-1.27-14.87-2-.46-.06-1-.86-1.17-1.42-2.8-9.67-5.54-19.35-8.47-29.62,1.45-.25,2.72-.59,4-.68,12-.87,24.06-1.62,36.08-2.57,6-.47,11.58-1.76,12.46-10.15a45.11,45.11,0,0,0-5.08,0c-14.4,1.57-28.76,3.5-43.19,4.71-7.85.66-11.21-3.91-10.92-12.53.34-10.19.12-20.39.59-30.57a102.51,102.51,0,0,1,2.34-16.07c.27-1.31,2.14-2.48,3.52-3.33,6.12-3.79,12.69-7,18.39-11.29,5.32-4,11.37-2.3,17-3.67,12.36-3,24.72-6,31.88-17.9,1.62-2.69,1.68-6.32,2.79-10.87,3.68-2.44,9.72-3.28,15.69-5,9.49-2.66,19.78-6.25,24.27-17A6.13,6.13,0,0,1,305,477c4.37-2,9-3.54,13.34-5.54a151.93,151.93,0,0,0,13.73-7c2.59-1.52,4.54-4.11,7.12-5.64,3.42-2,6.75-3.06,11.24-1.34,8.26,3.16,17.09,4.78,25.5,7.59,4.42,1.48,8.39,4.25,12.66,6.22a172.23,172.23,0,0,1,27.1,16.17c11.44,8.1,21,17.84,29.92,28.38,6.61,7.77,13.31,15.47,19.78,23.36,1.93,2.35,3.27,5.18,4.82,7.82a43.36,43.36,0,0,1,3.66,6.65c4.22,11.44,10.39,22.26,10.73,34.92.41,15.27-5.51,28.37-13.93,40.5a214.7,214.7,0,0,1-33.91,37.64c-5,4.43-9.51,9.49-15,13.13-12,8-23.28,17.14-37,22.36-7.16,2.73-13.81,6.85-21,9.32-5.61,1.91-11.75,2.24-17.67,3.23-5.18.87-10.35,2.13-15.57,2.41-19.48,1.06-39,1.75-57.89-4.55-18.65-6.23-35.56-15.77-49.19-30.09-5.53-5.81-9.6-13-14.19-19.71A5.34,5.34,0,0,1,208.76,660.2Zm165.32-65.41c2.63-.63,7.48-2.1,12.44-2.87,4.73-.74,7.49-3,9.39-7.42,1-2.37,3.81-3.93,5.48-6.11a6.07,6.07,0,0,0,1.18-4c-.38-3-1.36-5.91-1.9-8.89s-1.3-5.59-5.36-4c-2.68,1.07-3.95.11-4.53-2.86a6.79,6.79,0,0,0-3.36-4.12c-.79-.39-3.27.94-3.82,2.07-1.81,3.71-4.44,3.48-7.77,2.73-9.18-2.07-17.14.11-23.53,7.32-3.84,4.34-5.18,14.52-2.34,18.06C355.55,591.66,362.82,594.94,374.08,594.79Zm-62.35-19.92c6.41-.42,12.32-1.86,17.72-5.9,9.22-6.91,12.87-25.44,6-34.16-.85-1.08-3.05-1.09-4.63-1.6a16.17,16.17,0,0,0-.2,3.82c.47,2.59,1.55,5.09,1.83,7.68,1.48,13.68-6.13,21.7-18.83,22.3-3.45.16-7.29-2.2-10.53-4.13-6.42-3.81-14.33-6.27-15.79-15.35-.11-.66-1.92-1.54-2.81-1.42-.73.1-1.73,1.53-1.78,2.42a8.22,8.22,0,0,0,.82,4.69c2.86,4.38,5.45,9.19,9.25,12.61C298.07,570.54,303.73,575.39,311.72,574.86ZM347,608.08c.93,1.25,1.18,2,1.68,2.22,7.48,3.68,10.56,10.18,10.63,18,.09,9.52-3.26,18.19-7.69,26.56C346,665.55,338,674,327,678.82c-12,5.24-24.44,7.15-37,1.18-1.69-.8-3.89-.52-5.86-.75,11.87,11.11,25,11.1,38.69,5.91a56.84,56.84,0,0,0,29.34-24c7.19-11.68,12.72-23.46,10.45-37.53C361,613.81,357.33,609.64,347,608.08ZM397.94,501c-.52.66-1,1-1.09,1.43-.14.61-.29,1.49,0,1.89,4.7,6.06,3.31,12.41,1.05,18.85-4.33,12.36-14.43,15.89-25.74,10-6.71-3.52-9.74-9.18-11.65-16.55-1.33,1-2.59,2.15-2.82,3.49-.81,4.66,1.21,8.48,4,12.13,5.61,7.41,12.89,12.73,22.17,11.29,14-2.17,23.5-16.09,21.06-29.47C404.06,509.26,403.62,503.57,397.94,501Zm60.79,101c-9.43-.43-18.37.65-24.34-8.5-5.11-7.83-5.18-16.48-6.06-25.73-4.52,9.63-1.2,22.95,6.26,31.73C439.09,604.75,452.27,606.73,458.73,602ZM431.53,547l1.23,1.63c6.4-3.27,12.91-5.76,20.24-4.08.57.13,1.42-.95,2.14-1.46-.54-.56-1.08-1.61-1.62-1.61-5.23,0-10.55-.29-15.65.58C435.54,542.46,433.63,545.28,431.53,547Z"/><path class="cls-1" d="M253,501.33c-12,7.44-23.54,14.71-35.2,21.7-5,3-10-.35-15.05-.65a30.05,30.05,0,0,1-4.76-1.23c2.22-4.34,3.81-8.88,6.57-12.53,6.12-8.08,12.3-16.24,19.43-23.39,9-9,20.46-13.42,33.21-14.42,11.55-.91,23.08-2,34.63-2.91a25.67,25.67,0,0,1,5,.55c1.58,4.36,0,6.11-4,8a153.82,153.82,0,0,0-22.3,13.16c-5.06,3.58-10,1.51-15,1.6a58.92,58.92,0,0,0-9.2.91c-.18,0-.45,3.54.39,4.53C248.22,498.48,250.54,499.59,253,501.33Z"/><path class="cls-1" d="M176.19,357.64c-7.82,4.23-14.53,8-21.43,11.51-3.26,1.64-8-.58-9-4.11-1.75-6.62-2.87-13.42-4.85-20-.35-1.17-3.65-2.15-5.49-2-2.91.24-3.39,2.71-2.56,5.21,1.43,4.3,3.09,8.53,4.46,12.85a31.29,31.29,0,0,1,.69,5.37c-11.51-5.89-15.71-12.16-15.28-20.24.31-6,2.6-11.16,9-13.67,1.68-.66,2.46-3.36,4-4.74,3.8-3.44,7.33-8.38,11.83-9.61,9.21-2.53,18.76-3.9,28.51,0,8.28,3.29,10,9.48,9.41,17.95,0,.15-.16.29-.21.45-4.55,15.14-1.75,11.67-16.15,8.13a42.47,42.47,0,0,0-10.79-1c-1.07,0-2.1,2-3.15,3,1.08,1,2,2.39,3.27,2.9,4.71,1.88,9.55,3.44,14.31,5.2C173.46,355.15,174,355.87,176.19,357.64Z"/><path class="cls-1" d="M101,619.78c4.89-.62,9.76-1.6,14.67-1.81,13.21-.56,26.42-.87,39.64-1.12,8.38-.16,16.77-.07,25.16,0,1,0,2.72.66,2.89,1.32,2.19,8.64,4.15,17.34,6.19,26.07l-88.59-23Z"/><path class="cls-1" d="M255,507.48c.88,6.42-10.09,13.92-22.6,14.7Z"/><path class="cls-1" d="M203.67,531.34c-1.84.91-3.67,1.87-5.54,2.72-1.1.51-2.27.86-3.41,1.28-.23-1-.92-2.23-.57-3,.61-1.33,1.76-3.23,2.85-3.35,2.11-.23,4.34.61,6.52,1Z"/><path class="cls-1" d="M626.42,704.84,611,729l-1.47-.92c2.55-9.56,9-16.77,14.92-24.26Z"/><path class="cls-1" d="M884.88,676.43c-2.64,6.18-4.71,12.69-8.08,18.43-3.12,5.3-7.44,10-11.63,14.52-1.63,1.77-4.28,3-6.87.71-4.27-3.72-8.93-7-12.8-11.14-4.69-5-9.61-10.07-12.81-16-3.08-5.7-4.72-12.42-5.68-18.88-.35-2.34,2.68-6.89,4.92-7.46,2.46-.63,6.45,1.49,8.64,3.59,7.3,7,11.06,16,12.51,26,.38,2.65,1.06,6,4.91,5.5,3.31-.42,3.49-3.07,3.22-5.88a78.93,78.93,0,0,1-.52-10.15c.24-7.81,10.56-15.19,17.61-12.9,2.8.91,4.56,2.16,4.58,5.45a55.29,55.29,0,0,0,1.05,7.62Z"/><path class="cls-1" d="M372.54,322.13l-4.6,3.24c-2.55-4.43-5.38-8.44-7.28-12.85-4.16-9.69-6.48-19.91-3.91-30.36,2-8,6-15.33,13-20.22,4.49-3.11,12.34,0,15,4.84,3.46,6.46,4.2,12.61.4,19.2a12.69,12.69,0,0,0-1.36,6.61c.06,1.44,1.56,2.81,2.41,4.21,1.8-1.12,4.35-1.83,5.24-3.44,1.61-2.93,2.11-6.45,3.28-9.64a14.54,14.54,0,0,1,10.9-9.17A152.12,152.12,0,0,1,431.19,271c6.89-.3,9.74,4.92,8.12,11.69a37.86,37.86,0,0,1-11.25,18.58,179.63,179.63,0,0,1-24.81,19.16c-7.29,4.79-15.41,8.31-23.24,12.24-2,1-4,1.37-4.49-2.09C375.12,328,373.76,325.47,372.54,322.13Z"/><path d="M549.89,496c-7.65-.69-13.19-3.88-15.37-11.91-1.14-4.22-.85-8.18,2-11.08,3.61-3.62,8.43-3,13.05-1.69,6.3,1.76,9.66,6.87,12.6,11.93C565.26,488.49,557.11,496.67,549.89,496Z"/><path d="M640.69,482.91a58.87,58.87,0,0,1,6,4.33c6.82,6.36,1.75,14.41-5.57,18.31-6.06,3.23-13.1,3-18-2.94a12.46,12.46,0,0,1-2.35-6.72c-.34-4.64,5.44-11.62,10-13.12,2.73-.9,5.25-2.41,8-3.41,1-.37,2.27-.06,4-.06Zm-11.81,11.33c1.8,1.17,4.74,4.54,6.76,4.05,2.67-.64,4.62-4.3,6.88-6.66-2.09-1.6-4.18-4.49-6.26-4.48C633.26,487.16,628.74,487.32,628.88,494.24Z"/><path d="M571.56,515.86c-.44,2.83-1.29,5.17-1.06,7.4.86,8.46,11.08,12.9,18,7.55,6.16-4.76,11.38-10.52,12.5-18.86,2.87,2.53,3.16,2.66.27,9.43a34.34,34.34,0,0,1-12,15.1c-9.36,6.41-23.29-.21-24.61-11.5C564.09,520.31,566.27,517.29,571.56,515.86Z"/><path d="M517.67,592.87c-2.2-4.63-4.42-9.25-6.6-13.88-.92-2-1.77-3.93-2.66-5.9l-.12.13c2.11,3,4.36,6,6.31,9.11,2.79,4.49,5.36,9.11,8.37,14.28l-5.44-3.88Z"/><path d="M495.57,547.2l-6.14-22.66,1.53-.42L497,546.8Z"/><path d="M508.41,573.09,500,558.9l2.15-1.07q3.09,7.69,6.18,15.38Z"/><path d="M374.08,594.79c-11.26.15-18.53-3.12-24.13-10.09-2.84-3.54-1.51-13.72,2.34-18.06,6.39-7.21,14.34-9.39,23.53-7.32,3.33.75,6,1,7.77-2.73.55-1.13,3-2.46,3.82-2.07a6.79,6.79,0,0,1,3.36,4.12c.58,3,1.85,3.93,4.53,2.86,4.06-1.62,4.8.87,5.36,4s1.53,5.89,1.9,8.89a6.07,6.07,0,0,1-1.18,4c-1.67,2.18-4.45,3.73-5.48,6.11-1.9,4.4-4.66,6.68-9.39,7.42C381.56,592.69,376.71,594.16,374.08,594.79Zm5-5.09c-1.84-3.56,2.52-7.51-2.37-10.39-3.54-2.08-6.61-5-10.18-7-2-1.16-4.82-2.12-6.95-1.68a7.22,7.22,0,0,0-4.7,4.47c-.83,3.84-.53,7.88,3.34,10.6C364.33,590,371.2,590,379,589.7Z"/><path d="M311.72,574.86c-8,.53-13.66-4.32-18.9-9-3.8-3.42-6.4-8.24-9.25-12.61a8.22,8.22,0,0,1-.82-4.69c.05-.89,1.06-2.32,1.78-2.42.89-.13,2.71.76,2.81,1.42,1.46,9.08,9.37,11.54,15.79,15.35,3.24,1.92,7.07,4.29,10.53,4.13,12.7-.6,20.3-8.62,18.83-22.3-.28-2.59-1.36-5.09-1.83-7.68a16.17,16.17,0,0,1,.2-3.82c1.58.51,3.78.52,4.63,1.6,6.83,8.72,3.18,27.25-6,34.16C324,573,318.14,574.44,311.72,574.86Z"/><path d="M347,608.08c10.32,1.56,14,5.73,15.57,15.54,2.27,14.07-3.26,25.85-10.45,37.53a56.84,56.84,0,0,1-29.34,24c-13.69,5.19-26.82,5.2-38.69-5.91,2,.22,4.17-.06,5.86.75,12.59,6,25.05,4.06,37-1.18,11-4.82,19-13.27,24.65-24,4.43-8.37,7.78-17,7.69-26.56-.08-7.79-3.15-14.29-10.63-18C348.2,610.06,347.94,609.34,347,608.08Z"/><path d="M397.94,501c5.68,2.57,6.12,8.27,7,13,2.44,13.38-7.07,27.3-21.06,29.47-9.28,1.44-16.57-3.88-22.17-11.29-2.76-3.65-4.78-7.47-4-12.13.23-1.33,1.49-2.48,2.82-3.49,1.91,7.37,4.94,13,11.65,16.55,11.31,5.93,21.41,2.4,25.74-10,2.25-6.44,3.65-12.79-1.05-18.85-.32-.41-.17-1.29,0-1.89C397,502,397.42,501.65,397.94,501Z"/><path d="M458.73,602c-6.46,4.77-19.64,2.8-24.15-2.51-7.46-8.78-10.78-22.09-6.26-31.73.88,9.24,1,17.89,6.06,25.73C440.37,602.61,449.3,601.52,458.73,602Z"/><path d="M431.53,547c2.1-1.72,4-4.54,6.34-4.94,5.11-.87,10.42-.56,15.65-.58.54,0,1.08,1,1.62,1.61-.72.52-1.57,1.59-2.14,1.46-7.33-1.68-13.85.81-20.24,4.08Z"/><path class="cls-1" d="M628.88,494.24c-.15-6.92,4.38-7.08,7.38-7.09,2.08,0,4.17,2.89,6.26,4.48-2.26,2.36-4.2,6-6.88,6.66C633.62,498.78,630.68,495.41,628.88,494.24Z"/><path class="cls-1" d="M379,589.7c-7.84.28-14.72.32-20.85-4-3.88-2.72-4.17-6.76-3.34-10.6a7.22,7.22,0,0,1,4.7-4.47c2.13-.44,4.91.52,6.95,1.68,3.56,2,6.64,4.89,10.18,7C381.56,582.19,377.21,586.14,379,589.7Z"/></svg>