<svg xmlns="http://www.w3.org/2000/svg" width="260" height="404" viewBox="0 0 260 404">
  <path fill="none" d="M136.2 155.5H52.4c-15.1 0-27.4-12.3-27.4-27.4V73.8"/>
  <path fill="#E53A35" d="M136.2 173.6H52.4c-25.1 0-45.6-20.4-45.6-45.6V73.8h36.3v54.3c0 5.1 4.2 9.3 9.3 9.3h83.8v36.2z"/>
  <path opacity=".15" fill="#231F20" d="M6.9 116.7V128c0 25.1 20.4 45.6 45.6 45.6h83.8v-11.3H52.4c-25.1 0-45.5-20.5-45.5-45.6z"/>
  <circle fill="#8E6F64" cx="196" cy="159.3" r="63.9"/>
  <path opacity=".2" fill="#231F20" d="M213.4 97.8c20.8 8 35.6 27.9 35.6 51.3 0 30.4-24.9 55-55.6 55-30.7 0-55.6-24.6-55.6-55 0-12.3 4.1-23.6 11-32.8-10.3 11.4-16.6 26.4-16.6 43 0 35.3 28.6 63.9 63.9 63.9s63.9-28.6 63.9-63.9c-.1-29.3-19.7-54-46.6-61.5z"/>
  <path fill="#E53A35" d="M82.9 264.4h47.7v62.4H82.9z"/>
  <path fill="#212121" d="M82.9 347.3v23.8C64.7 371.1 50 385.8 50 404h80.6v-56.7H82.9z"/>
  <path fill="#FFF" d="M82.9 326.8h47.7v20.4H82.9z"/>
  <path fill="#E53A35" d="M141.9 264.4h47.7v62.4h-47.7z"/>
  <path fill="#212121" d="M189.6 347.3v23.8c18.2 0 32.9 14.7 32.9 32.9h-80.6v-56.7h47.7z"/>
  <path fill="#FFF" d="M141.9 326.8h47.7v20.4h-47.7z"/>
  <circle fill="#E53A35" cx="137.4" cy="203.1" r="84"/>
  <path fill="#212121" d="M53.4 203.1h168v27.2h-168z"/>
  <path fill="#F9CE1D" d="M118.1 203.1h36.3v27.2h-36.3z"/>
  <path opacity=".15" fill="#231F20" d="M168.1 125c21.9 15.2 36.2 40.4 36.2 69.1 0 46.4-37.6 84-84 84-10.8 0-21.2-2.1-30.7-5.8 13.6 9.4 30 14.9 47.7 14.9 46.4 0 84-37.6 84-84 .1-35.6-22-66-53.2-78.2z"/>
  <path fill="#EF9A9B" d="M107.3 80.6c0 6.9-5.7 12.5-12.8 12.5-7 0-12.8-5.6-12.8-12.5s5.7-12.5 12.8-12.5c7.1 0 12.8 5.6 12.8 12.5zm83.4 0c0 6.9-5.7 12.5-12.8 12.5-7.1 0-12.8-5.6-12.8-12.5s5.7-12.5 12.8-12.5c7.1 0 12.8 5.6 12.8 12.5z"/>
  <path fill="#FFF" d="M89.7 13.6c0 7.5-6.1 13.6-13.6 13.6s-13.6-6.1-13.6-13.6S68.6 0 76.1 0s13.6 6.1 13.6 13.6z"/>
  <path fill="#F9CE1D" d="M25.9 71c0 3.7 3.1 6.7 6.8 6.7 11.5 0 20.8-9.3 20.8-20.7 0-3.7-3-6.7-6.8-6.8-3.7 0-6.8 3-6.8 6.8 0 4-3.3 7.2-7.3 7.2-3.7 0-6.7 3-6.7 6.8z"/>
  <path fill="#F9CE1D" d="M4.6 69.7c.1 10 8.2 18.1 18.3 18.1 10.1 0 18.2-8.2 18.2-18.3L41 49v-.1c-.1-10-8.2-18.1-18.3-18.1-10 0-18.1 8.2-18.1 18.3v20.6c0-.1 0-.1 0 0z"/>
  <path fill="#FFF" d="M44 73.8c3.3 0 6 2.7 6 6v8.4c0 3.3-2.7 6-6 6H6.1c-3.3 0-6-2.7-6-6v-8.4c0-3.3 2.7-6 6-6H44z"/>
  <path fill="none" stroke="#E53A35" stroke-width="36" stroke-linecap="round" stroke-linejoin="round" stroke-miterlimit="10" d="M208.9 145.3l22.7 49.9"/>
  <path fill="#F7CBAD" d="M136.2 40.9c-25.1 0-45.4 20.3-45.4 45.4v45.4h90.8V86.2c0-25-20.3-45.3-45.4-45.3z"/>
  <path fill="#231F20" d="M160.1 94.2H73.8c0 46.4 38.4 84 85.8 84h.4c23.2 0 42-18.8 42-42s-18.7-42-41.9-42z" opacity=".15"/>
  <path fill="#FFF" d="M148.7 84H62.5c0 46.4 38.4 84 85.8 84h.4c23.2 0 42-18.8 42-42s-18.8-42-42-42z"/>
  <ellipse fill="#EF9A9B" cx="136.2" cy="84" rx="12.5" ry="10.2"/>
  <path fill="#212121" d="M145.3 97.6c0 5-4.1 9.1-9.1 9.1s-9.1-4.1-9.1-9.1h18.2z"/>
  <circle fill="#F9CE1D" cx="207.7" cy="145.3" r="23.8"/>
  <path fill="#8E6F64" d="M203 147.1l-21.1 15.3 18.2 15.3 9.4-25.9"/>
  <path fill="#E53A35" d="M95.9 13.6h-.5v54.5h86.2c0-30.1-38.4-54.5-85.7-54.5z"/>
  <path fill="#FFF" d="M182.4 40.9c3.3 0 6 2.7 6 6v15.2c0 3.3-2.7 6-6 6H90c-3.3 0-6-2.7-6-6V46.9c0-3.3 2.7-6 6-6h92.4z"/>
  <path fill="#212121" d="M118.1 74.9c0 1.9-1.5 3.4-3.4 3.4s-3.4-1.5-3.4-3.4 1.5-3.4 3.4-3.4 3.4 1.5 3.4 3.4zm36.3 0c0 1.9 1.5 3.4 3.4 3.4s3.4-1.5 3.4-3.4-1.5-3.4-3.4-3.4-3.4 1.5-3.4 3.4z"/>
</svg>
